<svg width="832" height="832" viewBox="0 0 832 832" fill="none" xmlns="http://www.w3.org/2000/svg">
<g clip-path="url(#clip0_1_2)">
<rect width="832" height="832" fill="#1F1333"/>
<path d="M71.427 107.868H95.0899C95.7399 107.868 96.2669 108.395 96.2669 109.045V116.843C96.2669 120.18 100.355 121.791 102.632 119.352L122.351 98.2242C123.68 96.7999 123.668 94.5858 122.322 93.1765L102.604 72.5186C100.313 70.1191 96.2669 71.7402 96.2669 75.0575V82.9551C96.2669 83.6051 95.7399 84.132 95.0899 84.132H71.427C69.3962 84.132 67.75 85.7783 67.75 87.809V95.6966V104.191C67.75 106.222 69.3962 107.868 71.427 107.868Z" fill="#2A1B41" stroke="#140C22" stroke-width="2.5"/>
<path d="M71.427 106.618H95.0899C96.4303 106.618 97.5169 107.705 97.5169 109.045V116.843C97.5169 119.045 100.215 120.109 101.718 118.499L121.437 97.3713C122.001 96.7666 122.199 95.9462 122.032 95.1903C121.759 95.1246 121.473 95.0899 121.18 95.0899H119.047C118.082 95.0899 117.156 95.4734 116.473 96.1561L106.315 106.315C104.635 107.994 101.764 106.805 101.764 104.43C101.764 102.957 100.571 101.764 99.0984 101.764H70.4025C69.9169 101.764 69.4406 101.861 69 102.045V104.191C69 105.531 70.0866 106.618 71.427 106.618Z" fill="#2B113B"/>
<path d="M504.573 299.868H480.91C480.26 299.868 479.733 300.395 479.733 301.045V308.843C479.733 312.18 475.645 313.791 473.368 311.352L453.649 290.224C452.32 288.8 452.332 286.586 453.678 285.176L473.396 264.519C475.687 262.119 479.733 263.74 479.733 267.057V274.955C479.733 275.605 480.26 276.132 480.91 276.132H504.573C506.604 276.132 508.25 277.778 508.25 279.809V287.697V296.191C508.25 298.222 506.604 299.868 504.573 299.868Z" fill="#2A1B41" stroke="#140C22" stroke-width="2.5"/>
<path d="M504.573 298.618H480.91C479.57 298.618 478.483 299.705 478.483 301.045V308.843C478.483 311.046 475.785 312.109 474.282 310.499L454.563 289.371C453.999 288.767 453.801 287.946 453.968 287.19C454.241 287.125 454.527 287.09 454.82 287.09H456.953C457.918 287.09 458.844 287.473 459.527 288.156L469.685 298.315C471.365 299.994 474.236 298.805 474.236 296.43C474.236 294.958 475.429 293.764 476.902 293.764H505.598C506.083 293.764 506.559 293.861 507 294.045V296.191C507 297.531 505.913 298.618 504.573 298.618Z" fill="#2B113B"/>
<path d="M56.573 738.868H32.9101C32.2601 738.868 31.7331 739.395 31.7331 740.045V747.843C31.7331 751.18 27.6452 752.791 25.3681 750.352L5.64922 729.224C4.31983 727.8 4.33225 725.586 5.67753 724.176L25.3964 703.519C27.6869 701.119 31.7331 702.74 31.7331 706.057V713.955C31.7331 714.605 32.2601 715.132 32.9101 715.132H56.573C58.6038 715.132 60.25 716.778 60.25 718.809V726.697V735.191C60.25 737.222 58.6038 738.868 56.573 738.868Z" fill="#2A1B41" stroke="#140C22" stroke-width="2.5"/>
<path d="M56.573 737.618H32.9101C31.5697 737.618 30.4831 738.705 30.4831 740.045V747.843C30.4831 750.045 27.7849 751.109 26.2819 749.499L6.56304 728.371C5.99864 727.767 5.80067 726.946 5.96754 726.19C6.24105 726.125 6.52658 726.09 6.82022 726.09H8.95275C9.91826 726.09 10.8442 726.473 11.5269 727.156L21.6854 737.315C23.3647 738.994 26.236 737.805 26.236 735.43C26.236 733.957 27.4294 732.764 28.9016 732.764H57.5975C58.0831 732.764 58.5594 732.861 59 733.045V735.191C59 736.531 57.9134 737.618 56.573 737.618Z" fill="#2B113B"/>
<path d="M354.104 258.016L332.79 262.16C332.208 262.274 331.669 262.543 331.23 262.941L332.068 263.868L331.23 262.941L318.972 274.031C318.151 274.774 317.765 275.884 317.947 276.976L322.067 301.663C322.267 302.858 323.115 303.844 324.268 304.218L348.067 311.955C348.82 312.2 349.637 312.161 350.364 311.846L367.869 304.261C368.935 303.799 369.673 302.802 369.805 301.648L372.153 281.101C372.246 280.292 372.032 279.478 371.553 278.82L357.353 259.295C356.61 258.274 355.343 257.775 354.104 258.016Z" fill="#2A1B41" stroke="#140C22" stroke-width="2.5"/>
<path d="M319.323 277.628L323.3 301.457C323.423 302.193 323.945 302.799 324.655 303.03L348.453 310.766C348.917 310.917 349.42 310.893 349.867 310.699L367.372 303.114C368.028 302.83 368.482 302.216 368.563 301.506L370.912 280.959C370.968 280.461 370.837 279.96 370.542 279.555L370.244 279.145L358 281.5L357 291L345 287.5L334 278L320 276.5L319.323 277.628Z" fill="#2B113B"/>
<path d="M135.427 299.868H159.09C159.74 299.868 160.267 300.395 160.267 301.045V308.843C160.267 312.18 164.355 313.791 166.632 311.352L186.351 290.224C187.68 288.8 187.668 286.586 186.322 285.176L166.604 264.519C164.313 262.119 160.267 263.74 160.267 267.057V274.955C160.267 275.605 159.74 276.132 159.09 276.132H135.427C133.396 276.132 131.75 277.778 131.75 279.809V287.697V296.191C131.75 298.222 133.396 299.868 135.427 299.868Z" fill="#2A1B41" stroke="#140C22" stroke-width="2.5"/>
<path d="M135.427 298.618H159.09C160.43 298.618 161.517 299.705 161.517 301.045V308.843C161.517 311.046 164.215 312.109 165.718 310.499L185.437 289.371C186.001 288.767 186.199 287.946 186.032 287.19C185.759 287.125 185.473 287.09 185.18 287.09H183.047C182.082 287.09 181.156 287.473 180.473 288.156L170.315 298.315C168.635 299.994 165.764 298.805 165.764 296.43C165.764 294.958 164.571 293.764 163.098 293.764H134.402C133.917 293.764 133.441 293.861 133 294.045V296.191C133 297.531 134.087 298.618 135.427 298.618Z" fill="#2B113B"/>
<path d="M784.23 704.941L785.068 705.868L784.23 704.941L771.972 716.031C771.151 716.774 770.765 717.884 770.947 718.976L775.067 743.663C775.267 744.858 776.115 745.844 777.268 746.218L801.067 753.955C801.82 754.2 802.637 754.161 803.364 753.846L820.869 746.261C821.935 745.799 822.673 744.802 822.805 743.648L825.153 723.101C825.246 722.292 825.032 721.478 824.553 720.82L810.353 701.295C809.61 700.274 808.343 699.775 807.104 700.016L785.79 704.16C785.208 704.274 784.669 704.543 784.23 704.941Z" fill="#2A1B41" stroke="#140C22" stroke-width="2.5"/>
<path d="M772.323 719.628L776.3 743.457C776.423 744.193 776.945 744.799 777.655 745.03L801.453 752.766C801.917 752.917 802.42 752.893 802.867 752.699L820.372 745.114C821.028 744.83 821.482 744.216 821.563 743.506L823.912 722.959C823.968 722.461 823.837 721.96 823.542 721.555L823.244 721.145L811 723.5L810 733L798 729.5L787 720L773 718.5L772.323 719.628Z" fill="#2B113B"/>
<path d="M711.427 747.868H735.09C735.74 747.868 736.267 748.395 736.267 749.045V756.843C736.267 760.18 740.355 761.791 742.632 759.352L762.351 738.224C763.68 736.8 763.668 734.586 762.322 733.176L742.604 712.519C740.313 710.119 736.267 711.74 736.267 715.057V722.955C736.267 723.605 735.74 724.132 735.09 724.132H711.427C709.396 724.132 707.75 725.778 707.75 727.809V735.697V744.191C707.75 746.222 709.396 747.868 711.427 747.868Z" fill="#2A1B41" stroke="#140C22" stroke-width="2.5"/>
<path d="M711.427 746.618H735.09C736.43 746.618 737.517 747.705 737.517 749.045V756.843C737.517 759.045 740.215 760.109 741.718 758.499L761.437 737.371C762.001 736.767 762.199 735.946 762.032 735.19C761.759 735.125 761.473 735.09 761.18 735.09H759.047C758.082 735.09 757.156 735.473 756.473 736.156L746.315 746.315C744.635 747.994 741.764 746.805 741.764 744.43C741.764 742.957 740.571 741.764 739.098 741.764H710.402C709.917 741.764 709.441 741.861 709 742.045V744.191C709 745.531 710.087 746.618 711.427 746.618Z" fill="#2B113B"/>
<path d="M456.427 555.868H480.09C480.74 555.868 481.267 556.395 481.267 557.045V564.843C481.267 568.18 485.355 569.791 487.632 567.352L507.351 546.224C508.68 544.8 508.668 542.586 507.322 541.176L487.604 520.519C485.313 518.119 481.267 519.74 481.267 523.057V530.955C481.267 531.605 480.74 532.132 480.09 532.132H456.427C454.396 532.132 452.75 533.778 452.75 535.809V543.697V552.191C452.75 554.222 454.396 555.868 456.427 555.868Z" fill="#2A1B41" stroke="#140C22" stroke-width="2.5"/>
<path d="M456.427 554.618H480.09C481.43 554.618 482.517 555.705 482.517 557.045V564.843C482.517 567.046 485.215 568.109 486.718 566.499L506.437 545.371C507.001 544.767 507.199 543.946 507.032 543.19C506.759 543.125 506.473 543.09 506.18 543.09H504.047C503.082 543.09 502.156 543.473 501.473 544.156L491.315 554.315C489.635 555.994 486.764 554.805 486.764 552.43C486.764 550.958 485.571 549.764 484.098 549.764H455.402C454.917 549.764 454.441 549.861 454 550.045V552.191C454 553.531 455.087 554.618 456.427 554.618Z" fill="#2B113B"/>
<path d="M148.132 71.4494L148.132 95.0674C148.132 95.7298 147.595 96.2669 146.933 96.2669L139.214 96.2669C135.857 96.2669 134.235 100.38 136.69 102.671L157.76 122.336C159.193 123.674 161.421 123.661 162.839 122.308L183.441 102.642C185.855 100.338 184.224 96.2669 180.886 96.2669L173.067 96.2669C172.405 96.2669 171.868 95.7298 171.868 95.0674L171.868 71.4494C171.868 69.4063 170.212 67.75 168.169 67.75L160.303 67.75L151.831 67.75C149.788 67.75 148.132 69.4063 148.132 71.4494Z" fill="#2A1B41" stroke="#140C22" stroke-width="2.5"/>
<path d="M142.708 97.5169L139.157 97.5169C136.954 97.5169 135.891 100.215 137.501 101.718L158.629 121.437C159.569 122.314 161.03 122.306 161.96 121.418L182.618 101.699C184.202 100.188 183.132 97.5169 180.943 97.5169L179.112 97.5169L162.626 114.003C161.678 114.951 160.142 114.951 159.194 114.003L142.708 97.5169Z" fill="#2B113B"/>
<path d="M84.132 391.449L84.132 415.067C84.132 415.73 83.595 416.267 82.9326 416.267L75.2143 416.267C71.8566 416.267 70.2354 420.38 72.6901 422.671L93.7603 442.336C95.1933 443.674 97.4209 443.661 98.8389 442.308L119.441 422.642C121.855 420.338 120.224 416.267 116.886 416.267L109.067 416.267C108.405 416.267 107.868 415.73 107.868 415.067L107.868 391.449C107.868 389.406 106.212 387.75 104.169 387.75L96.3034 387.75L87.8315 387.75C85.7883 387.75 84.132 389.406 84.132 391.449Z" fill="#2A1B41" stroke="#140C22" stroke-width="2.5"/>
<path d="M78.7079 417.517L75.1573 417.517C72.9545 417.517 71.8909 420.215 73.5013 421.718L94.6287 441.437C95.5688 442.314 97.0302 442.306 97.9604 441.418L118.618 421.699C120.202 420.188 119.132 417.517 116.943 417.517L115.112 417.517L98.6262 434.003C97.6784 434.951 96.1418 434.951 95.194 434.003L78.7079 417.517Z" fill="#2B113B"/>
<path d="M84.132 697.551L84.132 673.933C84.132 673.27 83.595 672.733 82.9326 672.733L75.2143 672.733C71.8566 672.733 70.2354 668.62 72.6901 666.329L93.7603 646.664C95.1933 645.326 97.4209 645.339 98.8389 646.692L119.441 666.358C121.855 668.662 120.224 672.733 116.886 672.733L109.067 672.733C108.405 672.733 107.868 673.27 107.868 673.933L107.868 697.551C107.868 699.594 106.212 701.25 104.169 701.25L96.3034 701.25L87.8315 701.25C85.7883 701.25 84.132 699.594 84.132 697.551Z" fill="#2A1B41" stroke="#140C22" stroke-width="2.5"/>
<path d="M75.4105 665.5L82.5 665.5C83.6046 665.5 84.5 666.395 84.5 667.5V672.05C84.0752 671.696 83.5288 671.483 82.9326 671.483L75.2143 671.483C72.9911 671.483 71.9177 668.76 73.543 667.243L75.4105 665.5Z" fill="#1F1333"/>
<path d="M116.732 665.5L118.578 667.262C120.176 668.788 119.096 671.483 116.886 671.483L109.067 671.483C108.685 671.483 108.323 671.571 108 671.727V667.5C108 666.395 108.895 665.5 110 665.5L116.732 665.5Z" fill="#1F1333"/>
<path d="M106.618 694.903V697.551C106.618 698.903 105.521 700 104.169 700H87.8314C86.4787 700 85.382 698.903 85.382 697.551L85.382 694.659C85.7012 694.874 86.0859 695 86.5 695H106C106.216 695 106.423 694.966 106.618 694.903Z" fill="#1F1333"/>
<path d="M148.132 135.449L148.132 159.067C148.132 159.73 147.595 160.267 146.933 160.267L139.214 160.267C135.857 160.267 134.235 164.38 136.69 166.671L157.76 186.336C159.193 187.674 161.421 187.661 162.839 186.308L183.441 166.642C185.855 164.338 184.224 160.267 180.886 160.267L173.067 160.267C172.405 160.267 171.868 159.73 171.868 159.067L171.868 135.449C171.868 133.406 170.212 131.75 168.169 131.75L160.303 131.75L151.831 131.75C149.788 131.75 148.132 133.406 148.132 135.449Z" fill="#2A1B41" stroke="#140C22" stroke-width="2.5"/>
<path d="M142.708 161.517L139.157 161.517C136.954 161.517 135.891 164.215 137.501 165.718L158.629 185.437C159.569 186.314 161.03 186.306 161.96 185.418L182.618 165.699C184.202 164.188 183.132 161.517 180.943 161.517L179.112 161.517L162.626 178.003C161.678 178.951 160.142 178.951 159.194 178.003L142.708 161.517Z" fill="#2B113B"/>
<path d="M148.132 199.449L148.132 223.067C148.132 223.73 147.595 224.267 146.933 224.267L139.214 224.267C135.857 224.267 134.235 228.38 136.69 230.671L157.76 250.336C159.193 251.674 161.421 251.661 162.839 250.308L183.441 230.642C185.855 228.338 184.224 224.267 180.886 224.267L173.067 224.267C172.405 224.267 171.868 223.73 171.868 223.067L171.868 199.449C171.868 197.406 170.212 195.75 168.169 195.75L160.303 195.75L151.831 195.75C149.788 195.75 148.132 197.406 148.132 199.449Z" fill="#2A1B41" stroke="#140C22" stroke-width="2.5"/>
<path d="M142.708 225.517L139.157 225.517C136.954 225.517 135.891 228.215 137.501 229.718L158.629 249.437C159.569 250.314 161.03 250.306 161.96 249.418L182.618 229.699C184.202 228.188 183.132 225.517 180.943 225.517L179.112 225.517L162.626 242.003C161.678 242.951 160.142 242.951 159.194 242.003L142.708 225.517Z" fill="#2B113B"/>
<path d="M340.132 647.449L340.132 671.067C340.132 671.73 339.595 672.267 338.933 672.267L331.214 672.267C327.857 672.267 326.235 676.38 328.69 678.671L349.76 698.336C351.193 699.674 353.421 699.661 354.839 698.308L375.441 678.642C377.855 676.338 376.224 672.267 372.886 672.267L365.067 672.267C364.405 672.267 363.868 671.73 363.868 671.067L363.868 647.449C363.868 645.406 362.212 643.75 360.169 643.75L352.303 643.75L343.831 643.75C341.788 643.75 340.132 645.406 340.132 647.449Z" fill="#2A1B41" stroke="#140C22" stroke-width="2.5"/>
<path d="M334.708 673.517L331.157 673.517C328.954 673.517 327.891 676.215 329.501 677.718L350.629 697.437C351.569 698.314 353.03 698.306 353.96 697.418L374.618 677.699C376.202 676.188 375.132 673.517 372.943 673.517L371.112 673.517L354.626 690.003C353.678 690.951 352.142 690.951 351.194 690.003L334.708 673.517Z" fill="#2B113B"/>
<path d="M124 224C124 235.387 112.15 245 97 245C81.8502 245 70 235.387 70 224C70 212.613 81.8502 203 97 203C112.15 203 124 212.613 124 224Z" fill="#190F2A" stroke="#140C22" stroke-width="2"/>
<path d="M123.75 224C123.75 225.546 123.532 227.053 123.116 228.505C118.253 220.856 108.301 215.75 97 215.75C85.6985 215.75 75.7468 220.856 70.8842 228.505C70.4684 227.053 70.25 225.546 70.25 224C70.25 212.804 81.9288 203.25 97 203.25C112.071 203.25 123.75 212.804 123.75 224Z" fill="#2B113B" stroke="#140C22" stroke-width="2.5"/>
<path d="M124 352C124 363.387 112.15 373 97 373C81.8502 373 70 363.387 70 352C70 340.613 81.8502 331 97 331C112.15 331 124 340.613 124 352Z" fill="#190F2A" stroke="#140C22" stroke-width="2"/>
<path d="M123.75 352C123.75 353.546 123.532 355.053 123.116 356.505C118.253 348.856 108.301 343.75 97 343.75C85.6985 343.75 75.7468 348.856 70.8842 356.505C70.4684 355.053 70.25 353.546 70.25 352C70.25 340.804 81.9288 331.25 97 331.25C112.071 331.25 123.75 340.804 123.75 352Z" fill="#2B113B" stroke="#140C22" stroke-width="2.5"/>
<path d="M60 352C60 363.387 48.1498 373 33 373C17.8502 373 6 363.387 6 352C6 340.613 17.8502 331 33 331C48.1498 331 60 340.613 60 352Z" fill="#190F2A" stroke="#140C22" stroke-width="2"/>
<path d="M59.75 352C59.75 353.546 59.5316 355.053 59.1158 356.505C54.2532 348.856 44.3015 343.75 33 343.75C21.6985 343.75 11.7468 348.856 6.88421 356.505C6.46845 355.053 6.25 353.546 6.25 352C6.25 340.804 17.9288 331.25 33 331.25C48.0712 331.25 59.75 340.804 59.75 352Z" fill="#2B113B" stroke="#140C22" stroke-width="2.5"/>
<path d="M700 480C700 491.387 688.15 501 673 501C657.85 501 646 491.387 646 480C646 468.613 657.85 459 673 459C688.15 459 700 468.613 700 480Z" fill="#190F2A" stroke="#140C22" stroke-width="2"/>
<path d="M699.75 480C699.75 481.546 699.532 483.053 699.116 484.505C694.253 476.856 684.301 471.75 673 471.75C661.699 471.75 651.747 476.856 646.884 484.505C646.468 483.053 646.25 481.546 646.25 480C646.25 468.804 657.929 459.25 673 459.25C688.071 459.25 699.75 468.804 699.75 480Z" fill="#2B113B" stroke="#140C22" stroke-width="2.5"/>
<path d="M764 480C764 491.387 752.15 501 737 501C721.85 501 710 491.387 710 480C710 468.613 721.85 459 737 459C752.15 459 764 468.613 764 480Z" fill="#190F2A" stroke="#140C22" stroke-width="2"/>
<path d="M763.75 480C763.75 481.546 763.532 483.053 763.116 484.505C758.253 476.856 748.301 471.75 737 471.75C725.699 471.75 715.747 476.856 710.884 484.505C710.468 483.053 710.25 481.546 710.25 480C710.25 468.804 721.929 459.25 737 459.25C752.071 459.25 763.75 468.804 763.75 480Z" fill="#2B113B" stroke="#140C22" stroke-width="2.5"/>
<path d="M700 544C700 555.387 688.15 565 673 565C657.85 565 646 555.387 646 544C646 532.613 657.85 523 673 523C688.15 523 700 532.613 700 544Z" fill="#190F2A" stroke="#140C22" stroke-width="2"/>
<path d="M699.75 544C699.75 545.546 699.532 547.053 699.116 548.505C694.253 540.856 684.301 535.75 673 535.75C661.699 535.75 651.747 540.856 646.884 548.505C646.468 547.053 646.25 545.546 646.25 544C646.25 532.804 657.929 523.25 673 523.25C688.071 523.25 699.75 532.804 699.75 544Z" fill="#2B113B" stroke="#140C22" stroke-width="2.5"/>
<g clip-path="url(#clip1_1_2)">
<path d="M650.623 645.101L643.897 662.799C643.802 663.049 643.744 663.334 643.753 663.637C643.827 666.072 645.088 668.002 646.798 669.289C648.492 670.564 650.668 671.25 652.759 671.25C654.8 671.25 656.881 670.711 658.493 669.453C660.143 668.165 661.197 666.202 661.248 663.613C661.253 663.339 661.206 663.074 661.121 662.835L659.942 663.252L661.121 662.835L654.847 645.148C654.147 643.174 651.367 643.143 650.623 645.101Z" fill="#2A1B41" stroke="#140C22" stroke-width="2.5"/>
<path d="M646.85 658.548L645.065 663.243C645.022 663.356 644.999 663.478 645.003 663.599C645.122 667.575 649.091 670 652.759 670C656.435 670 659.91 668.051 659.998 663.589C660.001 663.475 659.981 663.36 659.942 663.252L658.336 658.723C656.651 659.994 654.857 661 653 661C650.987 661 648.861 659.893 646.85 658.548Z" fill="#2B113B"/>
<path d="M650.623 677.101L643.897 694.799C643.802 695.049 643.744 695.334 643.753 695.637C643.827 698.072 645.088 700.002 646.798 701.289C648.492 702.564 650.668 703.25 652.759 703.25C654.8 703.25 656.881 702.711 658.493 701.453C660.143 700.165 661.197 698.202 661.248 695.613C661.253 695.339 661.206 695.074 661.121 694.835L659.942 695.252L661.121 694.835L654.847 677.148C654.147 675.174 651.367 675.143 650.623 677.101Z" fill="#2A1B41" stroke="#140C22" stroke-width="2.5"/>
<path d="M646.85 690.548L645.065 695.243C645.022 695.356 644.999 695.478 645.003 695.599C645.122 699.575 649.091 702 652.759 702C656.435 702 659.91 700.051 659.998 695.589C660.001 695.475 659.981 695.36 659.942 695.252L658.336 690.723C656.651 691.994 654.857 693 653 693C650.987 693 648.861 691.893 646.85 690.548Z" fill="#2B113B"/>
<path d="M690.623 644.101L683.897 661.799C683.802 662.049 683.744 662.334 683.753 662.637C683.827 665.072 685.088 667.002 686.798 668.289C688.492 669.564 690.668 670.25 692.759 670.25C694.8 670.25 696.881 669.711 698.493 668.453C700.143 667.165 701.197 665.202 701.248 662.613C701.253 662.339 701.206 662.074 701.121 661.835L699.942 662.252L701.121 661.835L694.847 644.148C694.147 642.174 691.367 642.143 690.623 644.101Z" fill="#2A1B41" stroke="#140C22" stroke-width="2.5"/>
<path d="M686.85 657.548L685.065 662.243C685.022 662.356 684.999 662.478 685.003 662.599C685.122 666.575 689.091 669 692.759 669C696.435 669 699.91 667.051 699.998 662.589C700.001 662.475 699.981 662.36 699.942 662.252L698.336 657.723C696.651 658.994 694.857 660 693 660C690.987 660 688.861 658.893 686.85 657.548Z" fill="#2B113B"/>
<path d="M690.623 676.101L683.897 693.799C683.802 694.049 683.744 694.334 683.753 694.637C683.827 697.072 685.088 699.002 686.798 700.289C688.492 701.564 690.668 702.25 692.759 702.25C694.8 702.25 696.881 701.711 698.493 700.453C700.143 699.165 701.197 697.202 701.248 694.613C701.253 694.339 701.206 694.074 701.121 693.835L699.942 694.252L701.121 693.835L694.847 676.148C694.147 674.174 691.367 674.143 690.623 676.101Z" fill="#2A1B41" stroke="#140C22" stroke-width="2.5"/>
<path d="M686.85 689.548L685.065 694.243C685.022 694.356 684.999 694.478 685.003 694.599C685.122 698.575 689.091 701 692.759 701C696.435 701 699.91 699.051 699.998 694.589C700.001 694.475 699.981 694.36 699.942 694.252L698.336 689.723C696.651 690.994 694.857 692 693 692C690.987 692 688.861 690.893 686.85 689.548Z" fill="#2B113B"/>
<path d="M670.623 660.101L663.897 677.799C663.802 678.049 663.744 678.334 663.753 678.637C663.827 681.072 665.088 683.002 666.798 684.289C668.492 685.564 670.668 686.25 672.759 686.25C674.8 686.25 676.881 685.711 678.493 684.453C680.143 683.165 681.197 681.202 681.248 678.613C681.253 678.339 681.206 678.074 681.121 677.835L679.942 678.252L681.121 677.835L674.847 660.148C674.147 658.174 671.367 658.143 670.623 660.101Z" fill="#2A1B41" stroke="#140C22" stroke-width="2.5"/>
<path d="M666.85 673.548L665.065 678.243C665.022 678.356 664.999 678.478 665.003 678.599C665.122 682.575 669.091 685 672.759 685C676.435 685 679.91 683.051 679.998 678.589C680.001 678.475 679.981 678.36 679.942 678.252L678.336 673.723C676.651 674.994 674.857 676 673 676C670.987 676 668.861 674.893 666.85 673.548Z" fill="#2B113B"/>
</g>
<g clip-path="url(#clip2_1_2)">
<path d="M586.623 709.101L579.897 726.799C579.802 727.049 579.744 727.334 579.753 727.637C579.827 730.072 581.088 732.002 582.798 733.289C584.492 734.564 586.668 735.25 588.759 735.25C590.8 735.25 592.881 734.711 594.493 733.453C596.143 732.165 597.197 730.202 597.248 727.613C597.253 727.339 597.206 727.074 597.121 726.835L595.942 727.252L597.121 726.835L590.847 709.148C590.147 707.174 587.367 707.143 586.623 709.101Z" fill="#2A1B41" stroke="#140C22" stroke-width="2.5"/>
<path d="M582.85 722.548L581.065 727.243C581.022 727.356 580.999 727.478 581.003 727.599C581.122 731.575 585.091 734 588.759 734C592.435 734 595.91 732.051 595.998 727.589C596.001 727.475 595.981 727.36 595.942 727.252L594.336 722.723C592.651 723.994 590.857 725 589 725C586.987 725 584.861 723.893 582.85 722.548Z" fill="#2B113B"/>
<path d="M586.623 741.101L579.897 758.799C579.802 759.049 579.744 759.334 579.753 759.637C579.827 762.072 581.088 764.002 582.798 765.289C584.492 766.564 586.668 767.25 588.759 767.25C590.8 767.25 592.881 766.711 594.493 765.453C596.143 764.165 597.197 762.202 597.248 759.613C597.253 759.339 597.206 759.074 597.121 758.835L595.942 759.252L597.121 758.835L590.847 741.148C590.147 739.174 587.367 739.143 586.623 741.101Z" fill="#2A1B41" stroke="#140C22" stroke-width="2.5"/>
<path d="M582.85 754.548L581.065 759.243C581.022 759.356 580.999 759.478 581.003 759.599C581.122 763.575 585.091 766 588.759 766C592.435 766 595.91 764.051 595.998 759.589C596.001 759.475 595.981 759.36 595.942 759.252L594.336 754.723C592.651 755.994 590.857 757 589 757C586.987 757 584.861 755.893 582.85 754.548Z" fill="#2B113B"/>
<path d="M626.623 708.101L619.897 725.799C619.802 726.049 619.744 726.334 619.753 726.637C619.827 729.072 621.088 731.002 622.798 732.289C624.492 733.564 626.668 734.25 628.759 734.25C630.8 734.25 632.881 733.711 634.493 732.453C636.143 731.165 637.197 729.202 637.248 726.613C637.253 726.339 637.206 726.074 637.121 725.835L635.942 726.252L637.121 725.835L630.847 708.148C630.147 706.174 627.367 706.143 626.623 708.101Z" fill="#2A1B41" stroke="#140C22" stroke-width="2.5"/>
<path d="M622.85 721.548L621.065 726.243C621.022 726.356 620.999 726.478 621.003 726.599C621.122 730.575 625.091 733 628.759 733C632.435 733 635.91 731.051 635.998 726.589C636.001 726.475 635.981 726.36 635.942 726.252L634.336 721.723C632.651 722.994 630.857 724 629 724C626.987 724 624.861 722.893 622.85 721.548Z" fill="#2B113B"/>
<path d="M626.623 740.101L619.897 757.799C619.802 758.049 619.744 758.334 619.753 758.637C619.827 761.072 621.088 763.002 622.798 764.289C624.492 765.564 626.668 766.25 628.759 766.25C630.8 766.25 632.881 765.711 634.493 764.453C636.143 763.165 637.197 761.202 637.248 758.613C637.253 758.339 637.206 758.074 637.121 757.835L635.942 758.252L637.121 757.835L630.847 740.148C630.147 738.174 627.367 738.143 626.623 740.101Z" fill="#2A1B41" stroke="#140C22" stroke-width="2.5"/>
<path d="M622.85 753.548L621.065 758.243C621.022 758.356 620.999 758.478 621.003 758.599C621.122 762.575 625.091 765 628.759 765C632.435 765 635.91 763.051 635.998 758.589C636.001 758.475 635.981 758.36 635.942 758.252L634.336 753.723C632.651 754.994 630.857 756 629 756C626.987 756 624.861 754.893 622.85 753.548Z" fill="#2B113B"/>
<path d="M606.623 724.101L599.897 741.799C599.802 742.049 599.744 742.334 599.753 742.637C599.827 745.072 601.088 747.002 602.798 748.289C604.492 749.564 606.668 750.25 608.759 750.25C610.8 750.25 612.881 749.711 614.493 748.453C616.143 747.165 617.197 745.202 617.248 742.613C617.253 742.339 617.206 742.074 617.121 741.835L615.942 742.252L617.121 741.835L610.847 724.148C610.147 722.174 607.367 722.143 606.623 724.101Z" fill="#2A1B41" stroke="#140C22" stroke-width="2.5"/>
<path d="M602.85 737.548L601.065 742.243C601.022 742.356 600.999 742.478 601.003 742.599C601.122 746.575 605.091 749 608.759 749C612.435 749 615.91 747.051 615.998 742.589C616.001 742.475 615.981 742.36 615.942 742.252L614.336 737.723C612.651 738.994 610.857 740 609 740C606.987 740 604.861 738.893 602.85 737.548Z" fill="#2B113B"/>
</g>
<g clip-path="url(#clip3_1_2)">
<path d="M522.623 773.101L515.897 790.799C515.802 791.049 515.744 791.334 515.753 791.637C515.827 794.072 517.088 796.002 518.798 797.289C520.492 798.564 522.668 799.25 524.759 799.25C526.8 799.25 528.881 798.711 530.493 797.453C532.143 796.165 533.197 794.202 533.248 791.613C533.253 791.339 533.206 791.074 533.121 790.835L531.942 791.252L533.121 790.835L526.847 773.148C526.147 771.174 523.367 771.143 522.623 773.101Z" fill="#2A1B41" stroke="#140C22" stroke-width="2.5"/>
<path d="M518.85 786.548L517.065 791.243C517.022 791.356 516.999 791.478 517.003 791.599C517.122 795.575 521.091 798 524.759 798C528.435 798 531.91 796.051 531.998 791.589C532.001 791.475 531.981 791.36 531.942 791.252L530.336 786.723C528.651 787.994 526.857 789 525 789C522.987 789 520.861 787.893 518.85 786.548Z" fill="#2B113B"/>
<path d="M522.623 805.101L515.897 822.799C515.802 823.049 515.744 823.334 515.753 823.637C515.827 826.072 517.088 828.002 518.798 829.289C520.492 830.564 522.668 831.25 524.759 831.25C526.8 831.25 528.881 830.711 530.493 829.453C532.143 828.165 533.197 826.202 533.248 823.613C533.253 823.339 533.206 823.074 533.121 822.835L531.942 823.252L533.121 822.835L526.847 805.148C526.147 803.174 523.367 803.143 522.623 805.101Z" fill="#2A1B41" stroke="#140C22" stroke-width="2.5"/>
<path d="M518.85 818.548L517.065 823.243C517.022 823.356 516.999 823.478 517.003 823.599C517.122 827.575 521.091 830 524.759 830C528.435 830 531.91 828.051 531.998 823.589C532.001 823.475 531.981 823.36 531.942 823.252L530.336 818.723C528.651 819.994 526.857 821 525 821C522.987 821 520.861 819.893 518.85 818.548Z" fill="#2B113B"/>
<path d="M562.623 772.101L555.897 789.799C555.802 790.049 555.744 790.334 555.753 790.637C555.827 793.072 557.088 795.002 558.798 796.289C560.492 797.564 562.668 798.25 564.759 798.25C566.8 798.25 568.881 797.711 570.493 796.453C572.143 795.165 573.197 793.202 573.248 790.613C573.253 790.339 573.206 790.074 573.121 789.835L571.942 790.252L573.121 789.835L566.847 772.148C566.147 770.174 563.367 770.143 562.623 772.101Z" fill="#2A1B41" stroke="#140C22" stroke-width="2.5"/>
<path d="M558.85 785.548L557.065 790.243C557.022 790.356 556.999 790.478 557.003 790.599C557.122 794.575 561.091 797 564.759 797C568.435 797 571.91 795.051 571.998 790.589C572.001 790.475 571.981 790.36 571.942 790.252L570.336 785.723C568.651 786.994 566.857 788 565 788C562.987 788 560.861 786.893 558.85 785.548Z" fill="#2B113B"/>
<path d="M562.623 804.101L555.897 821.799C555.802 822.049 555.744 822.334 555.753 822.637C555.827 825.072 557.088 827.002 558.798 828.289C560.492 829.564 562.668 830.25 564.759 830.25C566.8 830.25 568.881 829.711 570.493 828.453C572.143 827.165 573.197 825.202 573.248 822.613C573.253 822.339 573.206 822.074 573.121 821.835L571.942 822.252L573.121 821.835L566.847 804.148C566.147 802.174 563.367 802.143 562.623 804.101Z" fill="#2A1B41" stroke="#140C22" stroke-width="2.5"/>
<path d="M558.85 817.548L557.065 822.243C557.022 822.356 556.999 822.478 557.003 822.599C557.122 826.575 561.091 829 564.759 829C568.435 829 571.91 827.051 571.998 822.589C572.001 822.475 571.981 822.36 571.942 822.252L570.336 817.723C568.651 818.994 566.857 820 565 820C562.987 820 560.861 818.893 558.85 817.548Z" fill="#2B113B"/>
<path d="M542.623 788.101L535.897 805.799C535.802 806.049 535.744 806.334 535.753 806.637C535.827 809.072 537.088 811.002 538.798 812.289C540.492 813.564 542.668 814.25 544.759 814.25C546.8 814.25 548.881 813.711 550.493 812.453C552.143 811.165 553.197 809.202 553.248 806.613C553.253 806.339 553.206 806.074 553.121 805.835L551.942 806.252L553.121 805.835L546.847 788.148C546.147 786.174 543.367 786.143 542.623 788.101Z" fill="#2A1B41" stroke="#140C22" stroke-width="2.5"/>
<path d="M538.85 801.548L537.065 806.243C537.022 806.356 536.999 806.478 537.003 806.599C537.122 810.575 541.091 813 544.759 813C548.435 813 551.91 811.051 551.998 806.589C552.001 806.475 551.981 806.36 551.942 806.252L550.336 801.723C548.651 802.994 546.857 804 545 804C542.987 804 540.861 802.893 538.85 801.548Z" fill="#2B113B"/>
</g>
<path d="M636 480C636 491.387 624.15 501 609 501C593.85 501 582 491.387 582 480C582 468.613 593.85 459 609 459C624.15 459 636 468.613 636 480Z" fill="#190F2A" stroke="#140C22" stroke-width="2"/>
<path d="M635.75 480C635.75 481.546 635.532 483.053 635.116 484.505C630.253 476.856 620.301 471.75 609 471.75C597.699 471.75 587.747 476.856 582.884 484.505C582.468 483.053 582.25 481.546 582.25 480C582.25 468.804 593.929 459.25 609 459.25C624.071 459.25 635.75 468.804 635.75 480Z" fill="#2B113B" stroke="#140C22" stroke-width="2.5"/>
<path d="M252 160C252 171.387 240.15 181 225 181C209.85 181 198 171.387 198 160C198 148.613 209.85 139 225 139C240.15 139 252 148.613 252 160Z" fill="#190F2A" stroke="#140C22" stroke-width="2"/>
<path d="M251.75 160C251.75 161.546 251.532 163.053 251.116 164.505C246.253 156.856 236.301 151.75 225 151.75C213.699 151.75 203.747 156.856 198.884 164.505C198.468 163.053 198.25 161.546 198.25 160C198.25 148.804 209.929 139.25 225 139.25C240.071 139.25 251.75 148.804 251.75 160Z" fill="#2B113B" stroke="#140C22" stroke-width="2.5"/>
<path d="M573 224C573 235.387 561.15 245 546 245C530.85 245 519 235.387 519 224C519 212.613 530.85 203 546 203C561.15 203 573 212.613 573 224Z" fill="#190F2A" stroke="#140C22" stroke-width="2"/>
<path d="M572.75 224C572.75 225.546 572.532 227.053 572.116 228.505C567.253 220.856 557.301 215.75 546 215.75C534.699 215.75 524.747 220.856 519.884 228.505C519.468 227.053 519.25 225.546 519.25 224C519.25 212.804 530.929 203.25 546 203.25C561.071 203.25 572.75 212.804 572.75 224Z" fill="#2B113B" stroke="#140C22" stroke-width="2.5"/>
<path d="M508 672C508 683.387 496.15 693 481 693C465.85 693 454 683.387 454 672C454 660.613 465.85 651 481 651C496.15 651 508 660.613 508 672Z" fill="#190F2A" stroke="#140C22" stroke-width="2"/>
<path d="M507.75 672C507.75 673.546 507.532 675.053 507.116 676.505C502.253 668.856 492.301 663.75 481 663.75C469.699 663.75 459.747 668.856 454.884 676.505C454.468 675.053 454.25 673.546 454.25 672C454.25 660.804 465.929 651.25 481 651.25C496.071 651.25 507.75 660.804 507.75 672Z" fill="#2B113B" stroke="#140C22" stroke-width="2.5"/>
<path d="M444 736C444 747.387 432.15 757 417 757C401.85 757 390 747.387 390 736C390 724.613 401.85 715 417 715C432.15 715 444 724.613 444 736Z" fill="#190F2A" stroke="#140C22" stroke-width="2"/>
<path d="M443.75 736C443.75 737.546 443.532 739.053 443.116 740.505C438.253 732.856 428.301 727.75 417 727.75C405.699 727.75 395.747 732.856 390.884 740.505C390.468 739.053 390.25 737.546 390.25 736C390.25 724.804 401.929 715.25 417 715.25C432.071 715.25 443.75 724.804 443.75 736Z" fill="#2B113B" stroke="#140C22" stroke-width="2.5"/>
<path d="M316 800C316 811.387 304.15 821 289 821C273.85 821 262 811.387 262 800C262 788.613 273.85 779 289 779C304.15 779 316 788.613 316 800Z" fill="#190F2A" stroke="#140C22" stroke-width="2"/>
<path d="M315.75 800C315.75 801.546 315.532 803.053 315.116 804.505C310.253 796.856 300.301 791.75 289 791.75C277.699 791.75 267.747 796.856 262.884 804.505C262.468 803.053 262.25 801.546 262.25 800C262.25 788.804 273.929 779.25 289 779.25C304.071 779.25 315.75 788.804 315.75 800Z" fill="#2B113B" stroke="#140C22" stroke-width="2.5"/>
<g clip-path="url(#clip4_1_2)">
<path d="M213.121 214.835L211.942 215.252L213.121 214.835L206.847 197.148C206.147 195.174 203.367 195.143 202.623 197.101L195.897 214.799C195.802 215.049 195.744 215.334 195.753 215.637C195.827 218.072 197.088 220.002 198.798 221.289C200.492 222.564 202.668 223.25 204.759 223.25C206.8 223.25 208.881 222.711 210.493 221.453C212.143 220.165 213.197 218.202 213.248 215.613C213.253 215.339 213.206 215.074 213.121 214.835Z" fill="#2A1B41" stroke="#140C22" stroke-width="2.5"/>
<path d="M198.85 210.548L197.065 215.243C197.022 215.356 196.999 215.478 197.003 215.599C197.122 219.575 201.091 222 204.759 222C208.435 222 211.91 220.051 211.998 215.589C212.001 215.475 211.981 215.36 211.942 215.252L210.336 210.723C208.651 211.994 206.857 213 205 213C202.987 213 200.861 211.893 198.85 210.548Z" fill="#2B113B"/>
<path d="M213.121 246.835L211.942 247.252L213.121 246.835L206.847 229.148C206.147 227.174 203.367 227.143 202.623 229.101L195.897 246.799C195.802 247.049 195.744 247.334 195.753 247.637C195.827 250.072 197.088 252.002 198.798 253.289C200.492 254.564 202.668 255.25 204.759 255.25C206.8 255.25 208.881 254.711 210.493 253.453C212.143 252.165 213.197 250.202 213.248 247.613C213.253 247.339 213.206 247.074 213.121 246.835Z" fill="#2A1B41" stroke="#140C22" stroke-width="2.5"/>
<path d="M198.85 242.548L197.065 247.243C197.022 247.356 196.999 247.478 197.003 247.599C197.122 251.575 201.091 254 204.759 254C208.435 254 211.91 252.051 211.998 247.589C212.001 247.475 211.981 247.36 211.942 247.252L210.336 242.723C208.651 243.994 206.857 245 205 245C202.987 245 200.861 243.893 198.85 242.548Z" fill="#2B113B"/>
<path d="M253.121 213.835L251.942 214.252L253.121 213.835L246.847 196.148C246.147 194.174 243.367 194.143 242.623 196.101L235.897 213.799C235.802 214.049 235.744 214.334 235.753 214.637C235.827 217.072 237.088 219.002 238.798 220.289C240.492 221.564 242.668 222.25 244.759 222.25C246.8 222.25 248.881 221.711 250.493 220.453C252.143 219.165 253.197 217.202 253.248 214.613C253.253 214.339 253.206 214.074 253.121 213.835Z" fill="#2A1B41" stroke="#140C22" stroke-width="2.5"/>
<path d="M238.85 209.548L237.065 214.243C237.022 214.356 236.999 214.478 237.003 214.599C237.122 218.575 241.091 221 244.759 221C248.435 221 251.91 219.051 251.998 214.589C252.001 214.475 251.981 214.36 251.942 214.252L250.336 209.723C248.651 210.994 246.857 212 245 212C242.987 212 240.861 210.893 238.85 209.548Z" fill="#2B113B"/>
<path d="M253.121 245.835L251.942 246.252L253.121 245.835L246.847 228.148C246.147 226.174 243.367 226.143 242.623 228.101L235.897 245.799C235.802 246.049 235.744 246.334 235.753 246.637C235.827 249.072 237.088 251.002 238.798 252.289C240.492 253.564 242.668 254.25 244.759 254.25C246.8 254.25 248.881 253.711 250.493 252.453C252.143 251.165 253.197 249.202 253.248 246.613C253.253 246.339 253.206 246.074 253.121 245.835Z" fill="#2A1B41" stroke="#140C22" stroke-width="2.5"/>
<path d="M238.85 241.548L237.065 246.243C237.022 246.356 236.999 246.478 237.003 246.599C237.122 250.575 241.091 253 244.759 253C248.435 253 251.91 251.051 251.998 246.589C252.001 246.475 251.981 246.36 251.942 246.252L250.336 241.723C248.651 242.994 246.857 244 245 244C242.987 244 240.861 242.893 238.85 241.548Z" fill="#2B113B"/>
<path d="M233.121 229.835L231.942 230.252L233.121 229.835L226.847 212.148C226.147 210.174 223.367 210.143 222.623 212.101L215.897 229.799C215.802 230.049 215.744 230.334 215.753 230.637C215.827 233.072 217.088 235.002 218.798 236.289C220.492 237.564 222.668 238.25 224.759 238.25C226.8 238.25 228.881 237.711 230.493 236.453C232.143 235.165 233.197 233.202 233.248 230.613C233.253 230.339 233.206 230.074 233.121 229.835Z" fill="#2A1B41" stroke="#140C22" stroke-width="2.5"/>
<path d="M218.85 225.548L217.065 230.243C217.022 230.356 216.999 230.478 217.003 230.599C217.122 234.575 221.091 237 224.759 237C228.435 237 231.91 235.051 231.998 230.589C232.001 230.475 231.981 230.36 231.942 230.252L230.336 225.723C228.651 226.994 226.857 228 225 228C222.987 228 220.861 226.893 218.85 225.548Z" fill="#2B113B"/>
</g>
<g clip-path="url(#clip5_1_2)">
<path d="M522.623 69.1007L515.897 86.7989C515.802 87.0491 515.744 87.3341 515.753 87.6369C515.827 90.072 517.088 92.0021 518.798 93.2893C520.492 94.5641 522.668 95.25 524.759 95.25C526.8 95.25 528.881 94.7111 530.493 93.453C532.143 92.1654 533.197 90.2024 533.248 87.6131C533.253 87.3386 533.206 87.0741 533.121 86.8346L531.942 87.2524L533.121 86.8345L526.847 69.1478C526.147 67.1743 523.367 67.1433 522.623 69.1007Z" fill="#2A1B41" stroke="#140C22" stroke-width="2.5"/>
<path d="M518.85 82.5479L517.065 87.243C517.022 87.3565 516.999 87.478 517.003 87.5993C517.122 91.5752 521.091 94 524.759 94C528.435 94 531.91 92.0506 531.998 87.5885C532.001 87.4746 531.981 87.3598 531.942 87.2524L530.336 82.7231C528.651 83.9938 526.857 85 525 85C522.987 85 520.861 83.893 518.85 82.5479Z" fill="#2B113B"/>
<path d="M522.623 101.101L515.897 118.799C515.802 119.049 515.744 119.334 515.753 119.637C515.827 122.072 517.088 124.002 518.798 125.289C520.492 126.564 522.668 127.25 524.759 127.25C526.8 127.25 528.881 126.711 530.493 125.453C532.143 124.165 533.197 122.202 533.248 119.613C533.253 119.339 533.206 119.074 533.121 118.835L531.942 119.252L533.121 118.835L526.847 101.148C526.147 99.1743 523.367 99.1433 522.623 101.101Z" fill="#2A1B41" stroke="#140C22" stroke-width="2.5"/>
<path d="M518.85 114.548L517.065 119.243C517.022 119.356 516.999 119.478 517.003 119.599C517.122 123.575 521.091 126 524.759 126C528.435 126 531.91 124.051 531.998 119.589C532.001 119.475 531.981 119.36 531.942 119.252L530.336 114.723C528.651 115.994 526.857 117 525 117C522.987 117 520.861 115.893 518.85 114.548Z" fill="#2B113B"/>
<path d="M562.623 68.1007L555.897 85.7989C555.802 86.0491 555.744 86.3341 555.753 86.6369C555.827 89.072 557.088 91.0021 558.798 92.2893C560.492 93.5641 562.668 94.25 564.759 94.25C566.8 94.25 568.881 93.7111 570.493 92.453C572.143 91.1654 573.197 89.2024 573.248 86.6131C573.253 86.3386 573.206 86.0741 573.121 85.8346L571.942 86.2524L573.121 85.8345L566.847 68.1478C566.147 66.1743 563.367 66.1433 562.623 68.1007Z" fill="#2A1B41" stroke="#140C22" stroke-width="2.5"/>
<path d="M558.85 81.5479L557.065 86.243C557.022 86.3565 556.999 86.478 557.003 86.5993C557.122 90.5752 561.091 93 564.759 93C568.435 93 571.91 91.0506 571.998 86.5885C572.001 86.4746 571.981 86.3598 571.942 86.2524L570.336 81.7231C568.651 82.9938 566.857 84 565 84C562.987 84 560.861 82.893 558.85 81.5479Z" fill="#2B113B"/>
<path d="M562.623 100.101L555.897 117.799C555.802 118.049 555.744 118.334 555.753 118.637C555.827 121.072 557.088 123.002 558.798 124.289C560.492 125.564 562.668 126.25 564.759 126.25C566.8 126.25 568.881 125.711 570.493 124.453C572.143 123.165 573.197 121.202 573.248 118.613C573.253 118.339 573.206 118.074 573.121 117.835L571.942 118.252L573.121 117.835L566.847 100.148C566.147 98.1743 563.367 98.1433 562.623 100.101Z" fill="#2A1B41" stroke="#140C22" stroke-width="2.5"/>
<path d="M558.85 113.548L557.065 118.243C557.022 118.356 556.999 118.478 557.003 118.599C557.122 122.575 561.091 125 564.759 125C568.435 125 571.91 123.051 571.998 118.589C572.001 118.475 571.981 118.36 571.942 118.252L570.336 113.723C568.651 114.994 566.857 116 565 116C562.987 116 560.861 114.893 558.85 113.548Z" fill="#2B113B"/>
<path d="M542.623 84.1007L535.897 101.799C535.802 102.049 535.744 102.334 535.753 102.637C535.827 105.072 537.088 107.002 538.798 108.289C540.492 109.564 542.668 110.25 544.759 110.25C546.8 110.25 548.881 109.711 550.493 108.453C552.143 107.165 553.197 105.202 553.248 102.613C553.253 102.339 553.206 102.074 553.121 101.835L551.942 102.252L553.121 101.835L546.847 84.1478C546.147 82.1743 543.367 82.1433 542.623 84.1007Z" fill="#2A1B41" stroke="#140C22" stroke-width="2.5"/>
<path d="M538.85 97.5479L537.065 102.243C537.022 102.356 536.999 102.478 537.003 102.599C537.122 106.575 541.091 109 544.759 109C548.435 109 551.91 107.051 551.998 102.589C552.001 102.475 551.981 102.36 551.942 102.252L550.336 97.7231C548.651 98.9938 546.857 100 545 100C542.987 100 540.861 98.893 538.85 97.5479Z" fill="#2B113B"/>
</g>
<g clip-path="url(#clip6_1_2)">
<path d="M714.623 69.1007L707.897 86.7989C707.802 87.0491 707.744 87.3341 707.753 87.6369C707.827 90.072 709.088 92.0021 710.798 93.2893C712.492 94.5641 714.668 95.25 716.759 95.25C718.8 95.25 720.881 94.7111 722.493 93.453C724.143 92.1654 725.197 90.2024 725.248 87.6131C725.253 87.3386 725.206 87.0741 725.121 86.8346L723.942 87.2524L725.121 86.8345L718.847 69.1478C718.147 67.1743 715.367 67.1433 714.623 69.1007Z" fill="#2A1B41" stroke="#140C22" stroke-width="2.5"/>
<path d="M710.85 82.5479L709.065 87.243C709.022 87.3565 708.999 87.478 709.003 87.5993C709.122 91.5752 713.091 94 716.759 94C720.435 94 723.91 92.0506 723.998 87.5885C724.001 87.4746 723.981 87.3598 723.942 87.2524L722.336 82.7231C720.651 83.9938 718.857 85 717 85C714.987 85 712.861 83.893 710.85 82.5479Z" fill="#2B113B"/>
<path d="M714.623 101.101L707.897 118.799C707.802 119.049 707.744 119.334 707.753 119.637C707.827 122.072 709.088 124.002 710.798 125.289C712.492 126.564 714.668 127.25 716.759 127.25C718.8 127.25 720.881 126.711 722.493 125.453C724.143 124.165 725.197 122.202 725.248 119.613C725.253 119.339 725.206 119.074 725.121 118.835L723.942 119.252L725.121 118.835L718.847 101.148C718.147 99.1743 715.367 99.1433 714.623 101.101Z" fill="#2A1B41" stroke="#140C22" stroke-width="2.5"/>
<path d="M710.85 114.548L709.065 119.243C709.022 119.356 708.999 119.478 709.003 119.599C709.122 123.575 713.091 126 716.759 126C720.435 126 723.91 124.051 723.998 119.589C724.001 119.475 723.981 119.36 723.942 119.252L722.336 114.723C720.651 115.994 718.857 117 717 117C714.987 117 712.861 115.893 710.85 114.548Z" fill="#2B113B"/>
<path d="M754.623 68.1007L747.897 85.7989C747.802 86.0491 747.744 86.3341 747.753 86.6369C747.827 89.072 749.088 91.0021 750.798 92.2893C752.492 93.5641 754.668 94.25 756.759 94.25C758.8 94.25 760.881 93.7111 762.493 92.453C764.143 91.1654 765.197 89.2024 765.248 86.6131C765.253 86.3386 765.206 86.0741 765.121 85.8346L763.942 86.2524L765.121 85.8345L758.847 68.1478C758.147 66.1743 755.367 66.1433 754.623 68.1007Z" fill="#2A1B41" stroke="#140C22" stroke-width="2.5"/>
<path d="M750.85 81.5479L749.065 86.243C749.022 86.3565 748.999 86.478 749.003 86.5993C749.122 90.5752 753.091 93 756.759 93C760.435 93 763.91 91.0506 763.998 86.5885C764.001 86.4746 763.981 86.3598 763.942 86.2524L762.336 81.7231C760.651 82.9938 758.857 84 757 84C754.987 84 752.861 82.893 750.85 81.5479Z" fill="#2B113B"/>
<path d="M754.623 100.101L747.897 117.799C747.802 118.049 747.744 118.334 747.753 118.637C747.827 121.072 749.088 123.002 750.798 124.289C752.492 125.564 754.668 126.25 756.759 126.25C758.8 126.25 760.881 125.711 762.493 124.453C764.143 123.165 765.197 121.202 765.248 118.613C765.253 118.339 765.206 118.074 765.121 117.835L763.942 118.252L765.121 117.835L758.847 100.148C758.147 98.1743 755.367 98.1433 754.623 100.101Z" fill="#2A1B41" stroke="#140C22" stroke-width="2.5"/>
<path d="M750.85 113.548L749.065 118.243C749.022 118.356 748.999 118.478 749.003 118.599C749.122 122.575 753.091 125 756.759 125C760.435 125 763.91 123.051 763.998 118.589C764.001 118.475 763.981 118.36 763.942 118.252L762.336 113.723C760.651 114.994 758.857 116 757 116C754.987 116 752.861 114.893 750.85 113.548Z" fill="#2B113B"/>
<path d="M734.623 84.1007L727.897 101.799C727.802 102.049 727.744 102.334 727.753 102.637C727.827 105.072 729.088 107.002 730.798 108.289C732.492 109.564 734.668 110.25 736.759 110.25C738.8 110.25 740.881 109.711 742.493 108.453C744.143 107.165 745.197 105.202 745.248 102.613C745.253 102.339 745.206 102.074 745.121 101.835L743.942 102.252L745.121 101.835L738.847 84.1478C738.147 82.1743 735.367 82.1433 734.623 84.1007Z" fill="#2A1B41" stroke="#140C22" stroke-width="2.5"/>
<path d="M730.85 97.5479L729.065 102.243C729.022 102.356 728.999 102.478 729.003 102.599C729.122 106.575 733.091 109 736.759 109C740.435 109 743.91 107.051 743.998 102.589C744.001 102.475 743.981 102.36 743.942 102.252L742.336 97.7231C740.651 98.9938 738.857 100 737 100C734.987 100 732.861 98.893 730.85 97.5479Z" fill="#2B113B"/>
</g>
<g clip-path="url(#clip7_1_2)">
<path d="M21.1205 278.835L19.9425 279.252L21.1205 278.835L14.8468 261.148C14.1468 259.174 11.3669 259.143 10.623 261.101L3.89677 278.799C3.80167 279.049 3.74423 279.334 3.75333 279.637C3.82651 282.072 5.08837 284.002 6.79837 285.289C8.49185 286.564 10.668 287.25 12.7586 287.25C14.7997 287.25 16.881 286.711 18.4933 285.453C20.1434 284.165 21.1971 282.202 21.2481 279.613C21.2535 279.339 21.2055 279.074 21.1205 278.835Z" fill="#2A1B41" stroke="#140C22" stroke-width="2.5"/>
<path d="M6.84968 274.548L5.06528 279.243C5.02216 279.356 4.99917 279.478 5.00282 279.599C5.1223 283.575 9.09099 286 12.7587 286C16.4354 286 19.9105 284.051 19.9983 279.589C20.0006 279.475 19.9806 279.36 19.9425 279.252L18.3359 274.723C16.6508 275.994 14.8574 277 13 277C10.987 277 8.86129 275.893 6.84968 274.548Z" fill="#2B113B"/>
<path d="M21.1205 310.835L19.9425 311.252L21.1205 310.835L14.8468 293.148C14.1468 291.174 11.3669 291.143 10.623 293.101L3.89677 310.799C3.80167 311.049 3.74423 311.334 3.75333 311.637C3.82651 314.072 5.08837 316.002 6.79837 317.289C8.49185 318.564 10.668 319.25 12.7586 319.25C14.7997 319.25 16.881 318.711 18.4933 317.453C20.1434 316.165 21.1971 314.202 21.2481 311.613C21.2535 311.339 21.2055 311.074 21.1205 310.835Z" fill="#2A1B41" stroke="#140C22" stroke-width="2.5"/>
<path d="M6.84968 306.548L5.06528 311.243C5.02216 311.356 4.99917 311.478 5.00282 311.599C5.1223 315.575 9.09099 318 12.7587 318C16.4354 318 19.9105 316.051 19.9983 311.589C20.0006 311.475 19.9806 311.36 19.9425 311.252L18.3359 306.723C16.6508 307.994 14.8574 309 13 309C10.987 309 8.86129 307.893 6.84968 306.548Z" fill="#2B113B"/>
<path d="M61.1205 277.835L59.9425 278.252L61.1205 277.835L54.8468 260.148C54.1468 258.174 51.3669 258.143 50.623 260.101L43.8968 277.799C43.8017 278.049 43.7442 278.334 43.7533 278.637C43.8265 281.072 45.0884 283.002 46.7984 284.289C48.4919 285.564 50.668 286.25 52.7586 286.25C54.7997 286.25 56.881 285.711 58.4933 284.453C60.1434 283.165 61.1971 281.202 61.2481 278.613C61.2535 278.339 61.2055 278.074 61.1205 277.835Z" fill="#2A1B41" stroke="#140C22" stroke-width="2.5"/>
<path d="M46.8496 273.548L45.0653 278.243C45.0221 278.356 44.9991 278.478 45.0028 278.599C45.1223 282.575 49.091 285 52.7586 285C56.4354 285 59.9104 283.051 59.9983 278.589C60.0006 278.475 59.9806 278.36 59.9425 278.252L58.3359 273.723C56.6508 274.994 54.8573 276 53 276C50.9869 276 48.8613 274.893 46.8496 273.548Z" fill="#2B113B"/>
<path d="M61.1205 309.835L59.9425 310.252L61.1205 309.835L54.8468 292.148C54.1468 290.174 51.3669 290.143 50.623 292.101L43.8968 309.799C43.8017 310.049 43.7442 310.334 43.7533 310.637C43.8265 313.072 45.0884 315.002 46.7984 316.289C48.4919 317.564 50.668 318.25 52.7586 318.25C54.7997 318.25 56.881 317.711 58.4933 316.453C60.1434 315.165 61.1971 313.202 61.2481 310.613C61.2535 310.339 61.2055 310.074 61.1205 309.835Z" fill="#2A1B41" stroke="#140C22" stroke-width="2.5"/>
<path d="M46.8496 305.548L45.0653 310.243C45.0221 310.356 44.9991 310.478 45.0028 310.599C45.1223 314.575 49.091 317 52.7586 317C56.4354 317 59.9104 315.051 59.9983 310.589C60.0006 310.475 59.9806 310.36 59.9425 310.252L58.3359 305.723C56.6508 306.994 54.8573 308 53 308C50.9869 308 48.8613 306.893 46.8496 305.548Z" fill="#2B113B"/>
<path d="M41.1205 293.835L39.9425 294.252L41.1205 293.835L34.8468 276.148C34.1468 274.174 31.3669 274.143 30.623 276.101L23.8968 293.799C23.8017 294.049 23.7442 294.334 23.7533 294.637C23.8265 297.072 25.0884 299.002 26.7984 300.289C28.4919 301.564 30.668 302.25 32.7586 302.25C34.7997 302.25 36.881 301.711 38.4933 300.453C40.1434 299.165 41.1971 297.202 41.2481 294.613C41.2535 294.339 41.2055 294.074 41.1205 293.835Z" fill="#2A1B41" stroke="#140C22" stroke-width="2.5"/>
<path d="M26.8496 289.548L25.0653 294.243C25.0221 294.356 24.9991 294.478 25.0028 294.599C25.1223 298.575 29.091 301 32.7586 301C36.4354 301 39.9104 299.051 39.9983 294.589C40.0006 294.475 39.9806 294.36 39.9425 294.252L38.3359 289.723C36.6508 290.994 34.8573 292 33 292C30.9869 292 28.8613 290.893 26.8496 289.548Z" fill="#2B113B"/>
</g>
<path d="M259 395.905V440.511C259 441.616 259.895 442.511 261 442.511H312.5C313.605 442.511 314.5 441.616 314.5 440.511V395.907C314.5 395.165 314.089 394.485 313.434 394.138L298.676 386.863C298.401 386.727 298.098 386.657 297.791 386.657H275.473C275.162 386.657 274.855 386.729 274.577 386.868L260.064 394.138C259.409 394.484 259 395.165 259 395.905Z" stroke="#140C22" stroke-width="2.5"/>
<path d="M275.447 409.106L259.947 440.106C259.282 441.435 260.249 443 261.736 443H312.181C313.687 443 314.653 441.397 313.949 440.065L297.563 409.065C297.217 408.41 296.536 408 295.795 408H277.236C276.479 408 275.786 408.428 275.447 409.106Z" fill="#2B113B" stroke="#140C22" stroke-width="2.5"/>
<rect x="274.25" y="386.25" width="24.5" height="24.5" rx="1.75" fill="#2A1B41" stroke="#140C22" stroke-width="2.5"/>
<path d="M195 459.905V504.511C195 505.616 195.895 506.511 197 506.511H248.5C249.605 506.511 250.5 505.616 250.5 504.511V459.907C250.5 459.165 250.089 458.485 249.434 458.138L234.676 450.863C234.401 450.727 234.098 450.657 233.791 450.657H211.473C211.162 450.657 210.855 450.729 210.577 450.868L196.064 458.138C195.409 458.484 195 459.165 195 459.905Z" stroke="#140C22" stroke-width="2.5"/>
<path d="M211.447 473.106L195.947 504.106C195.282 505.435 196.249 507 197.736 507H248.181C249.687 507 250.653 505.397 249.949 504.065L233.563 473.065C233.217 472.41 232.536 472 231.795 472H213.236C212.479 472 211.786 472.428 211.447 473.106Z" fill="#2B113B" stroke="#140C22" stroke-width="2.5"/>
<rect x="210.25" y="450.25" width="24.5" height="24.5" rx="1.75" fill="#2A1B41" stroke="#140C22" stroke-width="2.5"/>
<path d="M195 523.905V568.511C195 569.616 195.895 570.511 197 570.511H248.5C249.605 570.511 250.5 569.616 250.5 568.511V523.907C250.5 523.165 250.089 522.485 249.434 522.138L234.676 514.863C234.401 514.727 234.098 514.657 233.791 514.657H211.473C211.162 514.657 210.855 514.729 210.577 514.868L196.064 522.138C195.409 522.484 195 523.165 195 523.905Z" stroke="#140C22" stroke-width="2.5"/>
<path d="M211.447 537.106L195.947 568.106C195.282 569.435 196.249 571 197.736 571H248.181C249.687 571 250.653 569.397 249.949 568.065L233.563 537.065C233.217 536.41 232.536 536 231.795 536H213.236C212.479 536 211.786 536.428 211.447 537.106Z" fill="#2B113B" stroke="#140C22" stroke-width="2.5"/>
<rect x="210.25" y="514.25" width="24.5" height="24.5" rx="1.75" fill="#2A1B41" stroke="#140C22" stroke-width="2.5"/>
<path d="M195 587.905V632.511C195 633.616 195.895 634.511 197 634.511H248.5C249.605 634.511 250.5 633.616 250.5 632.511V587.907C250.5 587.165 250.089 586.485 249.434 586.138L234.676 578.863C234.401 578.727 234.098 578.657 233.791 578.657H211.473C211.162 578.657 210.855 578.729 210.577 578.868L196.064 586.138C195.409 586.484 195 587.165 195 587.905Z" stroke="#140C22" stroke-width="2.5"/>
<path d="M211.447 601.106L195.947 632.106C195.282 633.435 196.249 635 197.736 635H248.181C249.687 635 250.653 633.397 249.949 632.065L233.563 601.065C233.217 600.41 232.536 600 231.795 600H213.236C212.479 600 211.786 600.428 211.447 601.106Z" fill="#2B113B" stroke="#140C22" stroke-width="2.5"/>
<rect x="210.25" y="578.25" width="24.5" height="24.5" rx="1.75" fill="#2A1B41" stroke="#140C22" stroke-width="2.5"/>
<path d="M323 395.905V440.511C323 441.616 323.895 442.511 325 442.511H376.5C377.605 442.511 378.5 441.616 378.5 440.511V395.907C378.5 395.165 378.089 394.485 377.434 394.138L362.676 386.863C362.401 386.727 362.098 386.657 361.791 386.657H339.473C339.162 386.657 338.855 386.729 338.577 386.868L324.064 394.138C323.409 394.484 323 395.165 323 395.905Z" stroke="#140C22" stroke-width="2.5"/>
<path d="M339.447 409.106L323.947 440.106C323.282 441.435 324.249 443 325.736 443H376.181C377.687 443 378.653 441.397 377.949 440.065L361.563 409.065C361.217 408.41 360.536 408 359.795 408H341.236C340.479 408 339.786 408.428 339.447 409.106Z" fill="#2B113B" stroke="#140C22" stroke-width="2.5"/>
<rect x="338.25" y="386.25" width="24.5" height="24.5" rx="1.75" fill="#2A1B41" stroke="#140C22" stroke-width="2.5"/>
<rect x="326.19" y="521.19" width="51.621" height="51.621" rx="1.66532" fill="#2B113B" stroke="#140C22" stroke-width="2.37903"/>
<rect x="326.19" y="515.19" width="51.621" height="49.621" rx="1.66532" fill="#24163B" stroke="#140C22" stroke-width="2.37903"/>
<path d="M350.167 552C348.417 548.889 342.583 539.167 335 539.167V533.917C341.417 533.917 347.833 539.75 350.167 546.75C351.333 539.75 360.083 535.083 363 535.083V530L370 537.417L363 545.417V539.75C358.917 539.75 351.917 546.167 350.167 552Z" fill="#140C22"/>
<rect x="646.19" y="137.19" width="51.621" height="51.621" rx="1.66532" fill="#2B113B" stroke="#140C22" stroke-width="2.37903"/>
<rect x="646.19" y="131.19" width="51.621" height="49.621" rx="1.66532" fill="#24163B" stroke="#140C22" stroke-width="2.37903"/>
<path d="M670.167 168C668.417 164.889 662.583 155.167 655 155.167V149.917C661.417 149.917 667.833 155.75 670.167 162.75C671.333 155.75 680.083 151.083 683 151.083V146L690 153.417L683 161.417V155.75C678.917 155.75 671.917 162.167 670.167 168Z" fill="#140C22"/>
<path d="M387 395.905V440.511C387 441.616 387.895 442.511 389 442.511H440.5C441.605 442.511 442.5 441.616 442.5 440.511V395.907C442.5 395.165 442.089 394.485 441.434 394.138L426.676 386.863C426.401 386.727 426.098 386.657 425.791 386.657H403.473C403.162 386.657 402.855 386.729 402.577 386.868L388.064 394.138C387.409 394.484 387 395.165 387 395.905Z" stroke="#140C22" stroke-width="2.5"/>
<path d="M403.447 409.106L387.947 440.106C387.282 441.435 388.249 443 389.736 443H440.181C441.687 443 442.653 441.397 441.949 440.065L425.563 409.065C425.217 408.41 424.536 408 423.795 408H405.236C404.479 408 403.786 408.428 403.447 409.106Z" fill="#2B113B" stroke="#140C22" stroke-width="2.5"/>
<rect x="402.25" y="386.25" width="24.5" height="24.5" rx="1.75" fill="#2A1B41" stroke="#140C22" stroke-width="2.5"/>
<path d="M195 395.905V440.511C195 441.616 195.895 442.511 197 442.511H248.5C249.605 442.511 250.5 441.616 250.5 440.511V395.907C250.5 395.165 250.089 394.485 249.434 394.138L234.676 386.863C234.401 386.727 234.098 386.657 233.791 386.657H211.473C211.162 386.657 210.855 386.729 210.577 386.868L196.064 394.138C195.409 394.484 195 395.165 195 395.905Z" stroke="#140C22" stroke-width="2.5"/>
<path d="M246 412.936V399.833C246 399.026 245.515 398.298 244.769 397.987L242.769 397.154C241.452 396.605 240 397.573 240 399V408.103C240 408.365 240.052 408.625 240.152 408.867L242.152 413.701C242.989 415.723 246 415.125 246 412.936Z" fill="#190F2A" stroke="#140C22" stroke-width="2.5"/>
<path d="M200 412.936V399.833C200 399.026 200.485 398.298 201.231 397.987L203.231 397.154C204.548 396.605 206 397.573 206 399V408.103C206 408.365 205.948 408.625 205.848 408.867L203.848 413.701C203.011 415.723 200 415.125 200 412.936Z" fill="#190F2A" stroke="#140C22" stroke-width="2.5"/>
<path d="M211.447 409.106L195.947 440.106C195.282 441.435 196.249 443 197.736 443H248.181C249.687 443 250.653 441.397 249.949 440.065L233.563 409.065C233.217 408.41 232.536 408 231.795 408H213.236C212.479 408 211.786 408.428 211.447 409.106Z" fill="#2B113B" stroke="#140C22" stroke-width="2.5"/>
<path d="M207.396 434.126L214.196 420.126C214.53 419.437 215.229 419 215.995 419H230.914C231.712 419 232.433 419.475 232.75 420.207L238.794 434.207C239.364 435.528 238.396 437 236.958 437H209.195C207.718 437 206.751 435.455 207.396 434.126Z" fill="#190F2A" stroke="#140C22" stroke-width="2.5"/>
<rect x="210.25" y="386.25" width="24.5" height="24.5" rx="1.75" fill="#1F1333" stroke="#140C22" stroke-width="2.5"/>
<path d="M195 651.905V696.511C195 697.616 195.895 698.511 197 698.511H248.5C249.605 698.511 250.5 697.616 250.5 696.511V651.907C250.5 651.165 250.089 650.485 249.434 650.138L234.676 642.863C234.401 642.727 234.098 642.657 233.791 642.657H211.473C211.162 642.657 210.855 642.729 210.577 642.868L196.064 650.138C195.409 650.484 195 651.165 195 651.905Z" stroke="#140C22" stroke-width="2.5"/>
<path d="M246 668.936V655.833C246 655.026 245.515 654.298 244.769 653.987L242.769 653.154C241.452 652.605 240 653.573 240 655V664.103C240 664.365 240.052 664.625 240.152 664.867L242.152 669.701C242.989 671.723 246 671.125 246 668.936Z" fill="#190F2A" stroke="#140C22" stroke-width="2.5"/>
<path d="M200 668.936V655.833C200 655.026 200.485 654.298 201.231 653.987L203.231 653.154C204.548 652.605 206 653.573 206 655V664.103C206 664.365 205.948 664.625 205.848 664.867L203.848 669.701C203.011 671.723 200 671.125 200 668.936Z" fill="#190F2A" stroke="#140C22" stroke-width="2.5"/>
<path d="M211.447 665.106L195.947 696.106C195.282 697.435 196.249 699 197.736 699H248.181C249.687 699 250.653 697.397 249.949 696.065L233.563 665.065C233.217 664.41 232.536 664 231.795 664H213.236C212.479 664 211.786 664.428 211.447 665.106Z" fill="#2B113B" stroke="#140C22" stroke-width="2.5"/>
<path d="M207.396 690.126L214.196 676.126C214.53 675.437 215.229 675 215.995 675H230.914C231.712 675 232.433 675.475 232.75 676.207L238.794 690.207C239.364 691.528 238.396 693 236.958 693H209.195C207.718 693 206.751 691.455 207.396 690.126Z" fill="#190F2A" stroke="#140C22" stroke-width="2.5"/>
<rect x="210.25" y="642.25" width="24.5" height="24.5" rx="1.75" fill="#1F1333" stroke="#140C22" stroke-width="2.5"/>
<path d="M451 395.905V440.511C451 441.616 451.895 442.511 453 442.511H504.5C505.605 442.511 506.5 441.616 506.5 440.511V395.907C506.5 395.165 506.089 394.485 505.434 394.138L490.676 386.863C490.401 386.727 490.098 386.657 489.791 386.657H467.473C467.162 386.657 466.855 386.729 466.577 386.868L452.064 394.138C451.409 394.484 451 395.165 451 395.905Z" stroke="#140C22" stroke-width="2.5"/>
<path d="M502 412.936V399.833C502 399.026 501.515 398.298 500.769 397.987L498.769 397.154C497.452 396.605 496 397.573 496 399V408.103C496 408.365 496.052 408.625 496.152 408.867L498.152 413.701C498.989 415.723 502 415.125 502 412.936Z" fill="#190F2A" stroke="#140C22" stroke-width="2.5"/>
<path d="M456 412.936V399.833C456 399.026 456.485 398.298 457.231 397.987L459.231 397.154C460.548 396.605 462 397.573 462 399V408.103C462 408.365 461.948 408.625 461.848 408.867L459.848 413.701C459.011 415.723 456 415.125 456 412.936Z" fill="#190F2A" stroke="#140C22" stroke-width="2.5"/>
<path d="M467.447 409.106L451.947 440.106C451.282 441.435 452.249 443 453.736 443H504.181C505.687 443 506.653 441.397 505.949 440.065L489.563 409.065C489.217 408.41 488.536 408 487.795 408H469.236C468.479 408 467.786 408.428 467.447 409.106Z" fill="#2B113B" stroke="#140C22" stroke-width="2.5"/>
<path d="M463.396 434.126L470.196 420.126C470.53 419.437 471.229 419 471.995 419H486.914C487.712 419 488.433 419.475 488.75 420.207L494.794 434.207C495.364 435.528 494.396 437 492.958 437H465.195C463.718 437 462.751 435.455 463.396 434.126Z" fill="#190F2A" stroke="#140C22" stroke-width="2.5"/>
<rect x="466.25" y="386.25" width="24.5" height="24.5" rx="1.75" fill="#1F1333" stroke="#140C22" stroke-width="2.5"/>
<path d="M515 651.905V696.511C515 697.616 515.895 698.511 517 698.511H568.5C569.605 698.511 570.5 697.616 570.5 696.511V651.907C570.5 651.165 570.089 650.485 569.434 650.138L554.676 642.863C554.401 642.727 554.098 642.657 553.791 642.657H531.473C531.162 642.657 530.855 642.729 530.577 642.868L516.064 650.138C515.409 650.484 515 651.165 515 651.905Z" stroke="#140C22" stroke-width="2.5"/>
<path d="M566 668.936V655.833C566 655.026 565.515 654.298 564.769 653.987L562.769 653.154C561.452 652.605 560 653.573 560 655V664.103C560 664.365 560.052 664.625 560.152 664.867L562.152 669.701C562.989 671.723 566 671.125 566 668.936Z" fill="#190F2A" stroke="#140C22" stroke-width="2.5"/>
<path d="M520 668.936V655.833C520 655.026 520.485 654.298 521.231 653.987L523.231 653.154C524.548 652.605 526 653.573 526 655V664.103C526 664.365 525.948 664.625 525.848 664.867L523.848 669.701C523.011 671.723 520 671.125 520 668.936Z" fill="#190F2A" stroke="#140C22" stroke-width="2.5"/>
<path d="M531.447 665.106L515.947 696.106C515.282 697.435 516.249 699 517.736 699H568.181C569.687 699 570.653 697.397 569.949 696.065L553.563 665.065C553.217 664.41 552.536 664 551.795 664H533.236C532.479 664 531.786 664.428 531.447 665.106Z" fill="#2B113B" stroke="#140C22" stroke-width="2.5"/>
<path d="M527.396 690.126L534.196 676.126C534.53 675.437 535.229 675 535.995 675H550.914C551.712 675 552.433 675.475 552.75 676.207L558.794 690.207C559.364 691.528 558.396 693 556.958 693H529.195C527.718 693 526.751 691.455 527.396 690.126Z" fill="#190F2A" stroke="#140C22" stroke-width="2.5"/>
<rect x="530.25" y="642.25" width="24.5" height="24.5" rx="1.75" fill="#1F1333" stroke="#140C22" stroke-width="2.5"/>
<path d="M451 714.905V759.511C451 760.616 451.895 761.511 453 761.511H504.5C505.605 761.511 506.5 760.616 506.5 759.511V714.907C506.5 714.165 506.089 713.485 505.434 713.138L490.676 705.863C490.401 705.727 490.098 705.657 489.791 705.657H467.473C467.162 705.657 466.855 705.729 466.577 705.868L452.064 713.138C451.409 713.484 451 714.165 451 714.905Z" stroke="#140C22" stroke-width="2.5"/>
<path d="M502 731.936V718.833C502 718.026 501.515 717.298 500.769 716.987L498.769 716.154C497.452 715.605 496 716.573 496 718V727.103C496 727.365 496.052 727.625 496.152 727.867L498.152 732.701C498.989 734.723 502 734.125 502 731.936Z" fill="#190F2A" stroke="#140C22" stroke-width="2.5"/>
<path d="M456 731.936V718.833C456 718.026 456.485 717.298 457.231 716.987L459.231 716.154C460.548 715.605 462 716.573 462 718V727.103C462 727.365 461.948 727.625 461.848 727.867L459.848 732.701C459.011 734.723 456 734.125 456 731.936Z" fill="#190F2A" stroke="#140C22" stroke-width="2.5"/>
<path d="M467.447 728.106L451.947 759.106C451.282 760.435 452.249 762 453.736 762H504.181C505.687 762 506.653 760.397 505.949 759.065L489.563 728.065C489.217 727.41 488.536 727 487.795 727H469.236C468.479 727 467.786 727.428 467.447 728.106Z" fill="#2B113B" stroke="#140C22" stroke-width="2.5"/>
<path d="M463.396 753.126L470.196 739.126C470.53 738.437 471.229 738 471.995 738H486.914C487.712 738 488.433 738.475 488.75 739.207L494.794 753.207C495.364 754.528 494.396 756 492.958 756H465.195C463.718 756 462.751 754.455 463.396 753.126Z" fill="#190F2A" stroke="#140C22" stroke-width="2.5"/>
<rect x="466.25" y="705.25" width="24.5" height="24.5" rx="1.75" fill="#1F1333" stroke="#140C22" stroke-width="2.5"/>
<path d="M643 325.905V370.511C643 371.616 643.895 372.511 645 372.511H696.5C697.605 372.511 698.5 371.616 698.5 370.511V325.907C698.5 325.165 698.089 324.485 697.434 324.138L682.676 316.863C682.401 316.727 682.098 316.657 681.791 316.657H659.473C659.162 316.657 658.855 316.729 658.577 316.868L644.064 324.138C643.409 324.484 643 325.165 643 325.905Z" stroke="#140C22" stroke-width="2.5"/>
<path d="M659.447 339.106L643.947 370.106C643.282 371.435 644.249 373 645.736 373H696.181C697.687 373 698.653 371.397 697.949 370.065L681.563 339.065C681.217 338.41 680.536 338 679.795 338H661.236C660.479 338 659.786 338.428 659.447 339.106Z" fill="#2B113B" stroke="#140C22" stroke-width="2.5"/>
<rect x="658.25" y="316.25" width="24.5" height="24.5" rx="1.75" fill="#2A1B41" stroke="#140C22" stroke-width="2.5"/>
<path d="M707 325.905V370.511C707 371.616 707.895 372.511 709 372.511H760.5C761.605 372.511 762.5 371.616 762.5 370.511V325.907C762.5 325.165 762.089 324.485 761.434 324.138L746.676 316.863C746.401 316.727 746.098 316.657 745.791 316.657H723.473C723.162 316.657 722.855 316.729 722.577 316.868L708.064 324.138C707.409 324.484 707 325.165 707 325.905Z" stroke="#140C22" stroke-width="2.5"/>
<path d="M723.447 339.106L707.947 370.106C707.282 371.435 708.249 373 709.736 373H760.181C761.687 373 762.653 371.397 761.949 370.065L745.563 339.065C745.217 338.41 744.536 338 743.795 338H725.236C724.479 338 723.786 338.428 723.447 339.106Z" fill="#2B113B" stroke="#140C22" stroke-width="2.5"/>
<rect x="722.25" y="316.25" width="24.5" height="24.5" rx="1.75" fill="#2A1B41" stroke="#140C22" stroke-width="2.5"/>
<path d="M451 203.905V248.511C451 249.616 451.895 250.511 453 250.511H504.5C505.605 250.511 506.5 249.616 506.5 248.511V203.907C506.5 203.165 506.089 202.485 505.434 202.138L490.676 194.863C490.401 194.727 490.098 194.657 489.791 194.657H467.473C467.162 194.657 466.855 194.729 466.577 194.868L452.064 202.138C451.409 202.484 451 203.165 451 203.905Z" stroke="#140C22" stroke-width="2.5"/>
<path d="M502 220.936V207.833C502 207.026 501.515 206.298 500.769 205.987L498.769 205.154C497.452 204.605 496 205.573 496 207V216.103C496 216.365 496.052 216.625 496.152 216.867L498.152 221.701C498.989 223.723 502 223.125 502 220.936Z" fill="#190F2A" stroke="#140C22" stroke-width="2.5"/>
<path d="M456 220.936V207.833C456 207.026 456.485 206.298 457.231 205.987L459.231 205.154C460.548 204.605 462 205.573 462 207V216.103C462 216.365 461.948 216.625 461.848 216.867L459.848 221.701C459.011 223.723 456 223.125 456 220.936Z" fill="#190F2A" stroke="#140C22" stroke-width="2.5"/>
<path d="M467.447 217.106L451.947 248.106C451.282 249.435 452.249 251 453.736 251H504.181C505.687 251 506.653 249.397 505.949 248.065L489.563 217.065C489.217 216.41 488.536 216 487.795 216H469.236C468.479 216 467.786 216.428 467.447 217.106Z" fill="#2B113B" stroke="#140C22" stroke-width="2.5"/>
<path d="M463.396 242.126L470.196 228.126C470.53 227.437 471.229 227 471.995 227H486.914C487.712 227 488.433 227.475 488.75 228.207L494.794 242.207C495.364 243.528 494.396 245 492.958 245H465.195C463.718 245 462.751 243.455 463.396 242.126Z" fill="#190F2A" stroke="#140C22" stroke-width="2.5"/>
<rect x="466.25" y="194.25" width="24.5" height="24.5" rx="1.75" fill="#1F1333" stroke="#140C22" stroke-width="2.5"/>
<g clip-path="url(#clip8_1_2)">
<path d="M85.1205 22.8346L83.9425 23.2524L85.1205 22.8345L78.8468 5.14782C78.1468 3.17431 75.3669 3.14327 74.623 5.10068L67.8968 22.7989C67.8017 23.0491 67.7442 23.3341 67.7533 23.6369C67.8265 26.072 69.0884 28.0021 70.7984 29.2893C72.4919 30.5641 74.668 31.25 76.7586 31.25C78.7997 31.25 80.881 30.7111 82.4933 29.453C84.1434 28.1654 85.1971 26.2024 85.2481 23.6131C85.2535 23.3386 85.2055 23.0741 85.1205 22.8346Z" fill="#2A1B41" stroke="#140C22" stroke-width="2.5"/>
<path d="M70.8496 18.5479L69.0653 23.243C69.0221 23.3565 68.9991 23.478 69.0028 23.5993C69.1223 27.5752 73.091 30 76.7586 30C80.4354 30 83.9104 28.0506 83.9983 23.5885C84.0006 23.4746 83.9806 23.3598 83.9425 23.2524L82.3359 18.7231C80.6508 19.9938 78.8573 21 77 21C74.9869 21 72.8613 19.893 70.8496 18.5479Z" fill="#2B113B"/>
<path d="M85.1205 54.8346L83.9425 55.2524L85.1205 54.8345L78.8468 37.1478C78.1468 35.1743 75.3669 35.1433 74.623 37.1007L67.8968 54.7989C67.8017 55.0491 67.7442 55.3341 67.7533 55.6369C67.8265 58.072 69.0884 60.0021 70.7984 61.2893C72.4919 62.5641 74.668 63.25 76.7586 63.25C78.7997 63.25 80.881 62.7111 82.4933 61.453C84.1434 60.1654 85.1971 58.2024 85.2481 55.6131C85.2535 55.3386 85.2055 55.0741 85.1205 54.8346Z" fill="#2A1B41" stroke="#140C22" stroke-width="2.5"/>
<path d="M70.8496 50.5479L69.0653 55.243C69.0221 55.3565 68.9991 55.478 69.0028 55.5993C69.1223 59.5752 73.091 62 76.7586 62C80.4354 62 83.9104 60.0506 83.9983 55.5885C84.0006 55.4746 83.9806 55.3598 83.9425 55.2524L82.3359 50.7231C80.6508 51.9938 78.8573 53 77 53C74.9869 53 72.8613 51.893 70.8496 50.5479Z" fill="#2B113B"/>
<path d="M125.121 21.8346L123.942 22.2524L125.121 21.8345L118.847 4.14782C118.147 2.17431 115.367 2.14327 114.623 4.10068L107.897 21.7989C107.802 22.0491 107.744 22.3341 107.753 22.6369C107.827 25.072 109.088 27.0021 110.798 28.2893C112.492 29.5641 114.668 30.25 116.759 30.25C118.8 30.25 120.881 29.7111 122.493 28.453C124.143 27.1654 125.197 25.2024 125.248 22.6131C125.253 22.3386 125.206 22.0741 125.121 21.8346Z" fill="#2A1B41" stroke="#140C22" stroke-width="2.5"/>
<path d="M110.85 17.5479L109.065 22.243C109.022 22.3565 108.999 22.478 109.003 22.5993C109.122 26.5752 113.091 29 116.759 29C120.435 29 123.91 27.0506 123.998 22.5885C124.001 22.4746 123.981 22.3598 123.942 22.2524L122.336 17.7231C120.651 18.9938 118.857 20 117 20C114.987 20 112.861 18.893 110.85 17.5479Z" fill="#2B113B"/>
<path d="M125.121 53.8346L123.942 54.2524L125.121 53.8345L118.847 36.1478C118.147 34.1743 115.367 34.1433 114.623 36.1007L107.897 53.7989C107.802 54.0491 107.744 54.3341 107.753 54.6369C107.827 57.072 109.088 59.0021 110.798 60.2893C112.492 61.5641 114.668 62.25 116.759 62.25C118.8 62.25 120.881 61.7111 122.493 60.453C124.143 59.1654 125.197 57.2024 125.248 54.6131C125.253 54.3386 125.206 54.0741 125.121 53.8346Z" fill="#2A1B41" stroke="#140C22" stroke-width="2.5"/>
<path d="M110.85 49.5479L109.065 54.243C109.022 54.3565 108.999 54.478 109.003 54.5993C109.122 58.5752 113.091 61 116.759 61C120.435 61 123.91 59.0506 123.998 54.5885C124.001 54.4746 123.981 54.3598 123.942 54.2524L122.336 49.7231C120.651 50.9938 118.857 52 117 52C114.987 52 112.861 50.893 110.85 49.5479Z" fill="#2B113B"/>
<path d="M105.121 37.8346L103.942 38.2524L105.121 37.8345L98.8468 20.1478C98.1468 18.1743 95.3669 18.1433 94.623 20.1007L87.8968 37.7989C87.8017 38.0491 87.7442 38.3341 87.7533 38.6369C87.8265 41.072 89.0884 43.0021 90.7984 44.2893C92.4919 45.5641 94.668 46.25 96.7586 46.25C98.7997 46.25 100.881 45.7111 102.493 44.453C104.143 43.1654 105.197 41.2024 105.248 38.6131C105.253 38.3386 105.206 38.0741 105.121 37.8346Z" fill="#2A1B41" stroke="#140C22" stroke-width="2.5"/>
<path d="M90.8496 33.5479L89.0653 38.243C89.0221 38.3565 88.9991 38.478 89.0028 38.5993C89.1223 42.5752 93.091 45 96.7586 45C100.435 45 103.91 43.0506 103.998 38.5885C104.001 38.4746 103.981 38.3598 103.942 38.2524L102.336 33.7231C100.651 34.9938 98.8573 36 97 36C94.9869 36 92.8613 34.893 90.8496 33.5479Z" fill="#2B113B"/>
</g>
<path d="M247 32C247 43.3867 235.15 53 220 53C204.85 53 193 43.3867 193 32C193 20.6133 204.85 11 220 11C235.15 11 247 20.6133 247 32Z" fill="#190F2A" stroke="#140C22" stroke-width="2"/>
<path d="M246.75 32C246.75 33.5459 246.532 35.0534 246.116 36.5054C241.253 28.8565 231.301 23.75 220 23.75C208.699 23.75 198.747 28.8565 193.884 36.5054C193.468 35.0534 193.25 33.5459 193.25 32C193.25 20.8041 204.929 11.25 220 11.25C235.071 11.25 246.75 20.8041 246.75 32Z" fill="#2B113B" stroke="#140C22" stroke-width="2.5"/>
<path d="M103.104 515.016L81.7898 519.16C81.2084 519.274 80.6689 519.543 80.2297 519.941L81.0683 520.868L80.2297 519.941L67.9723 531.031C67.1511 531.774 66.7648 532.884 66.9471 533.976L71.0672 558.663C71.2668 559.858 72.1152 560.844 73.2681 561.218L97.067 568.955C97.8203 569.2 98.6371 569.161 99.364 568.846L116.869 561.261C117.935 560.799 118.673 559.802 118.805 558.648L121.153 538.101C121.246 537.292 121.032 536.478 120.553 535.82L106.353 516.295C105.61 515.274 104.343 514.775 103.104 515.016Z" fill="#2A1B41" stroke="#140C22" stroke-width="2.5"/>
<path d="M68.3232 534.628L72.3002 558.457C72.423 559.193 72.9451 559.799 73.6546 560.03L97.4534 567.766C97.917 567.917 98.4197 567.893 98.867 567.699L116.372 560.114C117.028 559.83 117.482 559.216 117.563 558.506L119.912 537.959C119.968 537.461 119.837 536.96 119.542 536.555L119.244 536.145L107 538.5L106 548L94 544.5L83 535L69 533.5L68.3232 534.628Z" fill="#2B113B"/>
<path d="M532.132 263.449L532.132 287.067C532.132 287.73 531.595 288.267 530.933 288.267L523.214 288.267C519.857 288.267 518.235 292.38 520.69 294.671L541.76 314.336C543.193 315.674 545.421 315.661 546.839 314.308L567.441 294.642C569.855 292.338 568.224 288.267 564.886 288.267L557.067 288.267C556.405 288.267 555.868 287.73 555.868 287.067L555.868 263.449C555.868 261.406 554.212 259.75 552.169 259.75L544.303 259.75L535.831 259.75C533.788 259.75 532.132 261.406 532.132 263.449Z" fill="#2A1B41" stroke="#140C22" stroke-width="2.5"/>
<path d="M526.708 289.517L523.157 289.517C520.954 289.517 519.891 292.215 521.501 293.718L542.629 313.437C543.569 314.314 545.03 314.306 545.96 313.418L566.618 293.699C568.202 292.188 567.132 289.517 564.943 289.517L563.112 289.517L546.626 306.003C545.678 306.951 544.142 306.951 543.194 306.003L526.708 289.517Z" fill="#2B113B"/>
<path d="M532.132 569.551L532.132 545.933C532.132 545.27 531.595 544.733 530.933 544.733L523.214 544.733C519.857 544.733 518.235 540.62 520.69 538.329L541.76 518.664C543.193 517.326 545.421 517.339 546.839 518.692L567.441 538.358C569.855 540.662 568.224 544.733 564.886 544.733L557.067 544.733C556.405 544.733 555.868 545.27 555.868 545.933L555.868 569.551C555.868 571.594 554.212 573.25 552.169 573.25L544.303 573.25L535.831 573.25C533.788 573.25 532.132 571.594 532.132 569.551Z" fill="#2A1B41" stroke="#140C22" stroke-width="2.5"/>
<path d="M523.411 537.5L530.5 537.5C531.605 537.5 532.5 538.395 532.5 539.5V544.05C532.075 543.696 531.529 543.483 530.933 543.483L523.214 543.483C520.991 543.483 519.918 540.76 521.543 539.243L523.411 537.5Z" fill="#1F1333"/>
<path d="M564.732 537.5L566.578 539.262C568.176 540.788 567.096 543.483 564.886 543.483L557.067 543.483C556.685 543.483 556.323 543.571 556 543.727V539.5C556 538.395 556.895 537.5 558 537.5L564.732 537.5Z" fill="#1F1333"/>
<path d="M554.618 566.903V569.551C554.618 570.903 553.521 572 552.169 572H535.831C534.479 572 533.382 570.903 533.382 569.551L533.382 566.659C533.701 566.874 534.086 567 534.5 567H554C554.216 567 554.423 566.966 554.618 566.903Z" fill="#1F1333"/>
<path d="M528.23 391.941L529.068 392.868L528.23 391.941L515.972 403.031C515.151 403.774 514.765 404.884 514.947 405.976L519.067 430.663C519.267 431.858 520.115 432.844 521.268 433.218L545.067 440.955C545.82 441.2 546.637 441.161 547.364 440.846L564.869 433.261C565.935 432.799 566.673 431.802 566.805 430.648L569.153 410.101C569.246 409.292 569.032 408.478 568.553 407.82L554.353 388.295C553.61 387.274 552.343 386.775 551.104 387.016L529.79 391.16C529.208 391.274 528.669 391.543 528.23 391.941Z" fill="#2A1B41" stroke="#140C22" stroke-width="2.5"/>
<path d="M516.323 406.628L520.3 430.457C520.423 431.193 520.945 431.799 521.655 432.03L545.453 439.766C545.917 439.917 546.42 439.893 546.867 439.699L564.372 432.114C565.028 431.83 565.482 431.216 565.563 430.506L567.912 409.959C567.968 409.461 567.837 408.96 567.542 408.555L567.244 408.145L555 410.5L554 420L542 416.5L531 407L517 405.5L516.323 406.628Z" fill="#2B113B"/>
<path d="M451 139.905V184.511C451 185.616 451.895 186.511 453 186.511H504.5C505.605 186.511 506.5 185.616 506.5 184.511V139.907C506.5 139.165 506.089 138.485 505.434 138.138L490.676 130.863C490.401 130.727 490.098 130.657 489.791 130.657H467.473C467.162 130.657 466.855 130.729 466.577 130.868L452.064 138.138C451.409 138.484 451 139.165 451 139.905Z" stroke="#140C22" stroke-width="2.5"/>
<path d="M467.447 153.106L451.947 184.106C451.282 185.435 452.249 187 453.736 187H504.181C505.687 187 506.653 185.397 505.949 184.065L489.563 153.065C489.217 152.41 488.536 152 487.795 152H469.236C468.479 152 467.786 152.428 467.447 153.106Z" fill="#2B113B" stroke="#140C22" stroke-width="2.5"/>
<rect x="466.25" y="130.25" width="24.5" height="24.5" rx="1.75" fill="#2A1B41" stroke="#140C22" stroke-width="2.5"/>
<path d="M451 75.9054V120.511C451 121.616 451.895 122.511 453 122.511H504.5C505.605 122.511 506.5 121.616 506.5 120.511V75.9072C506.5 75.1654 506.089 74.4846 505.434 74.1384L490.676 66.8628C490.401 66.7272 490.098 66.6566 489.791 66.6566H467.473C467.162 66.6566 466.855 66.7291 466.577 66.8684L452.064 74.1379C451.409 74.4845 451 75.1646 451 75.9054Z" stroke="#140C22" stroke-width="2.5"/>
<path d="M502 92.9359V79.8333C502 79.0259 501.515 78.2977 500.769 77.9872L498.769 77.1538C497.452 76.6049 496 77.5728 496 79V88.1025C496 88.365 496.052 88.6248 496.152 88.8673L498.152 93.7006C498.989 95.7231 502 95.1248 502 92.9359Z" fill="#190F2A" stroke="#140C22" stroke-width="2.5"/>
<path d="M456 92.9359V79.8333C456 79.0259 456.485 78.2977 457.231 77.9872L459.231 77.1538C460.548 76.6049 462 77.5728 462 79V88.1025C462 88.365 461.948 88.6248 461.848 88.8673L459.848 93.7006C459.011 95.7231 456 95.1248 456 92.9359Z" fill="#190F2A" stroke="#140C22" stroke-width="2.5"/>
<path d="M467.447 89.1056L451.947 120.106C451.282 121.435 452.249 123 453.736 123H504.181C505.687 123 506.653 121.397 505.949 120.065L489.563 89.0654C489.217 88.41 488.536 88 487.795 88H469.236C468.479 88 467.786 88.428 467.447 89.1056Z" fill="#2B113B" stroke="#140C22" stroke-width="2.5"/>
<path d="M463.396 114.126L470.196 100.126C470.53 99.4373 471.229 99 471.995 99H486.914C487.712 99 488.433 99.4745 488.75 100.207L494.794 114.207C495.364 115.528 494.396 117 492.958 117H465.195C463.718 117 462.751 115.455 463.396 114.126Z" fill="#190F2A" stroke="#140C22" stroke-width="2.5"/>
<rect x="466.25" y="66.25" width="24.5" height="24.5" rx="1.75" fill="#1F1333" stroke="#140C22" stroke-width="2.5"/>
<path d="M596.132 370.551L596.132 346.933C596.132 346.27 595.595 345.733 594.933 345.733L587.214 345.733C583.857 345.733 582.235 341.62 584.69 339.329L605.76 319.664C607.193 318.326 609.421 318.339 610.839 319.692L631.441 339.358C633.855 341.662 632.224 345.733 628.886 345.733L621.067 345.733C620.405 345.733 619.868 346.27 619.868 346.933L619.868 370.551C619.868 372.594 618.212 374.25 616.169 374.25L608.303 374.25L599.831 374.25C597.788 374.25 596.132 372.594 596.132 370.551Z" fill="#2A1B41" stroke="#140C22" stroke-width="2.5"/>
<path d="M587.411 338.5L594.5 338.5C595.605 338.5 596.5 339.395 596.5 340.5V345.05C596.075 344.696 595.529 344.483 594.933 344.483L587.214 344.483C584.991 344.483 583.918 341.76 585.543 340.243L587.411 338.5Z" fill="#1F1333"/>
<path d="M628.732 338.5L630.578 340.262C632.176 341.788 631.096 344.483 628.886 344.483L621.067 344.483C620.685 344.483 620.323 344.571 620 344.727V340.5C620 339.395 620.895 338.5 622 338.5L628.732 338.5Z" fill="#1F1333"/>
<path d="M618.618 367.903V370.551C618.618 371.903 617.521 373 616.169 373H599.831C598.479 373 597.382 371.903 597.382 370.551L597.382 367.659C597.701 367.874 598.086 368 598.5 368H618C618.216 368 618.423 367.966 618.618 367.903Z" fill="#1F1333"/>
<path d="M788.132 370.551L788.132 346.933C788.132 346.27 787.595 345.733 786.933 345.733L779.214 345.733C775.857 345.733 774.235 341.62 776.69 339.329L797.76 319.664C799.193 318.326 801.421 318.339 802.839 319.692L823.441 339.358C825.855 341.662 824.224 345.733 820.886 345.733L813.067 345.733C812.405 345.733 811.868 346.27 811.868 346.933L811.868 370.551C811.868 372.594 810.212 374.25 808.169 374.25L800.303 374.25L791.831 374.25C789.788 374.25 788.132 372.594 788.132 370.551Z" fill="#2A1B41" stroke="#140C22" stroke-width="2.5"/>
<path d="M779.411 338.5L786.5 338.5C787.605 338.5 788.5 339.395 788.5 340.5V345.05C788.075 344.696 787.529 344.483 786.933 344.483L779.214 344.483C776.991 344.483 775.918 341.76 777.543 340.243L779.411 338.5Z" fill="#1F1333"/>
<path d="M820.732 338.5L822.578 340.262C824.176 341.788 823.096 344.483 820.886 344.483L813.067 344.483C812.685 344.483 812.323 344.571 812 344.727V340.5C812 339.395 812.895 338.5 814 338.5L820.732 338.5Z" fill="#1F1333"/>
<path d="M810.618 367.903V370.551C810.618 371.903 809.521 373 808.169 373H791.831C790.479 373 789.382 371.903 789.382 370.551L789.382 367.659C789.701 367.874 790.086 368 790.5 368H810C810.216 368 810.423 367.966 810.618 367.903Z" fill="#1F1333"/>
<path d="M643 779.905V824.511C643 825.616 643.895 826.511 645 826.511H696.5C697.605 826.511 698.5 825.616 698.5 824.511V779.907C698.5 779.165 698.089 778.485 697.434 778.138L682.676 770.863C682.401 770.727 682.098 770.657 681.791 770.657H659.473C659.162 770.657 658.855 770.729 658.577 770.868L644.064 778.138C643.409 778.484 643 779.165 643 779.905Z" stroke="#140C22" stroke-width="2.5"/>
<path d="M694 796.936V783.833C694 783.026 693.515 782.298 692.769 781.987L690.769 781.154C689.452 780.605 688 781.573 688 783V792.103C688 792.365 688.052 792.625 688.152 792.867L690.152 797.701C690.989 799.723 694 799.125 694 796.936Z" fill="#190F2A" stroke="#140C22" stroke-width="2.5"/>
<path d="M648 796.936V783.833C648 783.026 648.485 782.298 649.231 781.987L651.231 781.154C652.548 780.605 654 781.573 654 783V792.103C654 792.365 653.948 792.625 653.848 792.867L651.848 797.701C651.011 799.723 648 799.125 648 796.936Z" fill="#190F2A" stroke="#140C22" stroke-width="2.5"/>
<path d="M659.447 793.106L643.947 824.106C643.282 825.435 644.249 827 645.736 827H696.181C697.687 827 698.653 825.397 697.949 824.065L681.563 793.065C681.217 792.41 680.536 792 679.795 792H661.236C660.479 792 659.786 792.428 659.447 793.106Z" fill="#2B113B" stroke="#140C22" stroke-width="2.5"/>
<path d="M655.396 818.126L662.196 804.126C662.53 803.437 663.229 803 663.995 803H678.914C679.712 803 680.433 803.475 680.75 804.207L686.794 818.207C687.364 819.528 686.396 821 684.958 821H657.195C655.718 821 654.751 819.455 655.396 818.126Z" fill="#190F2A" stroke="#140C22" stroke-width="2.5"/>
<rect x="658.25" y="770.25" width="24.5" height="24.5" rx="1.75" fill="#1F1333" stroke="#140C22" stroke-width="2.5"/>
</g>
<defs>
<clipPath id="clip0_1_2">
<rect width="832" height="832" fill="white"/>
</clipPath>
<clipPath id="clip1_1_2">
<rect width="64" height="64" fill="white" transform="translate(640 640)"/>
</clipPath>
<clipPath id="clip2_1_2">
<rect width="64" height="64" fill="white" transform="translate(576 704)"/>
</clipPath>
<clipPath id="clip3_1_2">
<rect width="64" height="64" fill="white" transform="translate(512 768)"/>
</clipPath>
<clipPath id="clip4_1_2">
<rect width="64" height="64" fill="white" transform="translate(192 192)"/>
</clipPath>
<clipPath id="clip5_1_2">
<rect width="64" height="64" fill="white" transform="translate(512 64)"/>
</clipPath>
<clipPath id="clip6_1_2">
<rect width="64" height="64" fill="white" transform="translate(704 64)"/>
</clipPath>
<clipPath id="clip7_1_2">
<rect width="64" height="64" fill="white" transform="translate(0 256)"/>
</clipPath>
<clipPath id="clip8_1_2">
<rect width="64" height="64" fill="white" transform="translate(64)"/>
</clipPath>
</defs>
</svg>
