<svg width="188" height="77" viewBox="0 0 188 77" fill="none" xmlns="http://www.w3.org/2000/svg">
<rect x="2.58904" y="1.84908" width="183.482" height="72.9941" rx="36.497" fill="#41B70A" stroke="#140C22" stroke-width="3.4819"/>
<path fill-rule="evenodd" clip-rule="evenodd" d="M181.492 24.5681C183.318 28.7926 184.33 33.4512 184.33 38.3461C184.33 57.5414 168.769 73.1022 149.574 73.1022H39.0861C27.3245 73.1022 16.9274 67.26 10.6385 58.3192C18.0072 45.7845 32.675 32.6263 58.5921 31.7477C86.4076 30.8048 96.8098 38.2907 105.194 44.3241C111.034 48.5272 115.896 52.0255 124.982 51.4781C134.729 50.891 142.614 45.2871 151.051 39.2906C159.735 33.1186 169.005 26.5306 181.492 24.5681Z" fill="#3A9511"/>
<path d="M30.0979 10.1554C25.6011 10.5263 12.7698 19.6293 13.1463 24.1952C13.5229 28.7612 27.6667 21.8485 30.0979 10.1554Z" fill="#D9D9D9"/>
</svg>
