<svg width="33" height="33" viewBox="0 0 33 33" fill="none" xmlns="http://www.w3.org/2000/svg">
<path d="M8.46359 24.2575L7.95483 18.4976M8.46359 24.2575L14.1899 24.7327M8.46359 24.2575L16.4976 16.2234M8.46479 8.18823L14.2246 7.67947M8.46479 8.18823L7.98957 13.9145M8.46479 8.18823L16.4988 16.2222M24.534 8.18943L25.0428 13.9493M24.534 8.18943L18.8077 7.71421M24.534 8.18943L16.5 16.2234M24.5328 24.2586L18.773 24.7674M24.5328 24.2586L25.008 18.5324M24.5328 24.2586L16.4988 16.2246M17.9668 14.7543L16.4988 16.2222M16.4988 16.2222L16.4976 16.2234M16.4988 16.2222L16.5 16.2234M16.4976 16.2234L15.0297 14.7555M16.4976 16.2234L16.4988 16.2246M17.9679 17.6914L16.5 16.2234M16.5 16.2234L16.4988 16.2246M15.0308 17.6926L16.4988 16.2246" stroke="#D0AF00" stroke-width="2" stroke-linecap="round"/>
</svg>
