<svg width="845" height="462" viewBox="0 0 845 462" fill="none" xmlns="http://www.w3.org/2000/svg">
<g clip-path="url(#clip0_4_1216)">
<path d="M553.131 232.1C570.964 214.081 617.382 190.246 643.81 191.938C658.711 193.968 670.067 188.912 700.925 191.938C748.795 196.631 779.401 216.978 790.198 243.479C803.012 274.932 802.196 357 780.426 390.691C770.119 406.641 638.439 414.516 583.607 384.262C504.089 340.387 519.618 265.962 553.131 232.1Z" fill="#41B70A" stroke="#0E1D08" stroke-width="4.4"/>
<path d="M783.268 233.299C768.651 212.327 745.295 205.972 724.649 198.94C710.772 195.93 644.292 196.248 627.73 198.204C607.028 200.65 603.704 240.627 605.497 255.135C606.932 266.742 659.954 326.395 656.812 384.332C672.3 384.984 768.927 386.49 791.533 372.466C814.139 358.442 797.885 254.271 783.268 233.299Z" fill="#3A9511"/>
<path d="M760.59 241.839L726.774 303.389L722.55 275.874L740.078 228.668L764.17 211.838C764.938 213.77 768.206 218.863 775.134 223.779C782.061 228.696 787.285 240.586 789.03 245.916C788.471 246.422 785.892 247.288 780.053 246.704C774.214 246.12 764.645 243.217 760.59 241.839Z" fill="#317612"/>
<path d="M657.184 270.711C630.762 275.759 612.235 263.137 606.275 256.195L640.355 254.302L674.434 222.747L692.736 199.817H717.77C708.584 221.344 683.606 265.662 657.184 270.711Z" fill="#317612"/>
<path d="M624.695 116.996C624.619 116.988 624.543 116.984 624.467 116.984C610.311 116.984 599.983 123.423 593.016 133.067C586.109 142.627 582.528 155.277 581.506 167.889C580.483 180.513 582.005 193.327 585.525 203.347C587.285 208.356 589.576 212.758 592.378 216.092C594.676 218.826 597.382 220.915 600.471 221.95C599.171 231.498 599.378 241.258 603.811 248.696C608.701 256.901 618.279 261.611 634.337 260.926C645.848 260.435 658.054 259.76 667.173 254.903C671.818 252.429 675.7 248.859 678.304 243.71C680.714 238.945 681.962 232.961 681.852 225.479C693.267 221.746 701.567 215.692 707.375 208.186C713.437 200.351 716.691 191.054 718.049 181.426C720.756 162.228 715.976 141.392 710.409 127.094C710.109 126.325 709.405 125.788 708.584 125.703L624.695 116.996Z" fill="#41B70A" stroke="#0E1D08" stroke-width="4.4046" stroke-linejoin="round"/>
<path d="M649.354 190.012C658.631 196.032 650.539 203.433 642.348 195.933C644.867 208.661 639.978 231.13 630.96 228.966C621.942 226.802 615.238 238.766 613.014 245.018C612.172 247.844 611.391 254.054 614.998 256.291C619.507 259.086 649.658 262.771 666.251 253.031C682.844 243.291 681.557 227.581 681.557 223.999C730.909 204.91 717.268 163.507 709.821 130.988C695.867 128.734 661.252 148.436 659.473 146.743C654.365 141.884 656.164 191.097 649.354 190.012Z" fill="#3A9411"/>
<path d="M653.256 236.472C653.831 236.76 654.503 236.781 655.095 236.531C655.687 236.281 656.14 235.785 656.335 235.173C658.589 228.11 657.164 219.49 653.66 212.216C650.159 204.949 644.33 198.509 637.182 196.201C633.221 194.922 629.712 196.042 626.873 198.243C624.115 200.382 621.897 203.589 620.166 206.827C616.892 212.95 614.999 219.873 614.521 222.151C612.62 225.727 611.338 228.824 610.6 231.467C609.848 234.16 609.622 236.518 610 238.478C610.391 240.508 611.449 242.142 613.164 243.072C614.802 243.959 616.721 244.032 618.566 243.677C620.357 243.332 622.962 242.325 625.741 241.242C625.934 241.167 626.128 241.09 626.325 241.014C629.063 239.945 632.133 238.747 635.309 237.719C638.718 236.616 642.154 235.743 645.312 235.442C648.489 235.14 651.185 235.438 653.256 236.472Z" fill="#1F490C" stroke="#152F08" stroke-width="4.4" stroke-linejoin="round"/>
<path d="M601.384 225.882C600.643 225.538 599.773 225.633 599.123 226.128C598.473 226.623 598.151 227.438 598.286 228.244C598.838 231.538 601.344 235.265 603.927 238.219C606.508 241.17 609.641 243.885 612.057 245.014C613.086 245.561 614.165 245.566 615.1 245.247C615.986 244.946 616.691 244.379 617.204 243.853C618.219 242.812 618.98 241.412 619.308 240.352L617.205 239.701L619.308 240.352C619.321 240.309 619.336 240.263 619.352 240.212C619.583 239.475 620.093 237.849 620.049 236.282C620.024 235.409 619.826 234.314 619.106 233.357C618.341 232.339 617.206 231.767 615.888 231.593C615.451 231.535 614.596 231.303 613.358 230.877C612.17 230.467 610.769 229.928 609.31 229.334C606.394 228.148 603.319 226.779 601.384 225.882Z" fill="#CCCCCC" stroke="#152F08" stroke-width="4.4046" stroke-linejoin="round"/>
<path d="M600.604 227.947C604.977 231.464 610.516 235.529 613.004 236.041C616.085 236.674 615.531 240.625 614.713 243.023C615.89 242.408 616.886 240.73 617.205 239.701C617.215 239.665 617.227 239.629 617.239 239.591C617.727 238.019 618.91 234.214 615.6 233.776C612.921 233.422 604.583 229.786 600.604 227.947Z" fill="#9D9D9D"/>
<path d="M613.447 247.156C613.513 243.092 615.349 235.015 620.539 231.99C631.597 225.545 647.803 231.367 651.866 235.968" stroke="#152F08" stroke-width="4.4" stroke-linecap="round" stroke-linejoin="round"/>
<path d="M621.324 234.09C616.507 236.997 613.893 249.367 614.984 248.821C651.084 252.459 654.085 239.274 654.085 239.274C649.902 234.636 632.625 227.271 621.324 234.09Z" fill="#3A9511"/>
<path d="M679.924 236.827C679.635 223.719 665.059 196.075 658.471 191.113C656.049 193.849 653.591 194.935 653.591 194.378C653.591 193.653 651.073 191.307 649.814 190.224L658.471 140.973C675.956 130.07 702.251 108.094 706.542 118.851C710.833 129.608 714.234 127.026 713.78 136.544C694.577 154.942 689.25 151.709 668.882 157.432C670.437 159.025 674.274 163.111 678.985 164.713C684.873 166.716 678.894 170.085 675.434 168.082C671.974 166.079 668.849 163.91 665.951 161.157C666.666 171.11 664.736 175.888 662.375 184.012C662.065 185.079 661.676 186.065 661.236 186.97C663.508 188.407 673.89 202.862 677.552 211.006C680.038 220.054 689.709 218.071 694.907 217.435C690.603 219.752 685.108 223.285 681.853 223.91C681.853 223.91 681.24 235.647 679.924 236.827Z" fill="#317612"/>
<path d="M634.022 146.537L596.36 124.03C590.75 136.245 604.704 146.389 612.432 149.782C611.41 151.592 608.215 156.583 601.871 157.248C591.241 158.361 592.677 164.724 603.105 161.585C602.291 170.271 602.093 189.934 608.575 191.438C607.783 194.178 606.2 200.42 606.2 203.474C606.2 207.292 612.533 188.79 622.939 187.395L634.022 146.537Z" fill="#3A9511"/>
<path d="M633.786 179.948C631.295 179.948 620.208 190.069 611.074 184.762C608.111 182.91 608.724 168.42 608.971 162.248C617.857 158.583 623.664 142.547 628.602 146.991C632.093 150.134 633.134 163.056 633.518 171.951C633.48 162.232 634.44 149.868 638.353 145.88C644.771 139.338 656.062 156.751 660.324 161.309C660.077 168.098 659.213 185.009 654.029 187.971C648.845 190.934 639.727 178.827 633.786 179.948Z" fill="#D9D9D9"/>
<path d="M633.786 179.948C631.295 179.948 620.208 190.069 611.074 184.762C608.111 182.91 608.724 168.42 608.971 162.248C617.857 158.583 623.664 142.547 628.602 146.991C633.539 151.435 633.575 175.432 633.786 179.948ZM633.786 179.948C633.169 170.773 633.218 151.114 638.353 145.88C644.771 139.338 656.062 156.751 660.324 161.309C660.077 168.098 659.213 185.009 654.029 187.971C648.845 190.934 639.727 178.827 633.786 179.948Z" stroke="#0E1D08" stroke-width="4.4" stroke-linejoin="round"/>
<path d="M646.264 166.5C641.513 165.506 637.03 171.96 637.831 181.049C641 183.055 647.124 187.707 650.841 187.4C657.03 186.89 653.367 167.985 646.264 166.5Z" fill="#0E1D08"/>
<path d="M630.14 179.751C628.449 172.854 624.871 166.673 620.224 167.056C615.59 167.438 613.702 176.655 613.182 183.643C614.975 185.83 617.227 184.488 620.9 184.185C624.848 183.859 628.28 182.787 630.14 179.751Z" fill="#0E1D08"/>
<path d="M766.314 162.871C766.047 163.409 766.006 164.033 766.2 164.601C766.394 165.169 766.807 165.632 767.343 165.884L801.768 182.035C802.739 182.491 803.895 182.161 804.495 181.256C804.925 180.608 805.734 179.911 807.237 178.84C807.605 178.578 808.01 178.296 808.446 177.993C809.671 177.142 811.138 176.122 812.71 174.89C817.06 171.481 822.398 166.325 827.893 157.211C831.601 151.061 831.764 144.946 829.664 139.528C827.603 134.209 823.426 129.699 818.651 126.374C813.868 123.042 808.3 120.768 803.212 120.051C798.229 119.349 793.119 120.086 790.012 123.619C786.045 128.13 781.261 135.664 776.945 143.113C772.603 150.606 768.641 158.176 766.314 162.871Z" fill="#501755" stroke="#140C22" stroke-width="4.4046" stroke-linejoin="round"/>
<path d="M737.692 144.002C737.742 144.605 738.036 145.165 738.503 145.55C738.971 145.934 739.572 146.111 740.167 146.038L771.642 142.179C772.697 142.049 773.499 141.172 773.542 140.099C773.568 139.43 773.901 138.214 774.594 136.138C774.758 135.647 774.937 135.119 775.128 134.558C775.692 132.902 776.355 130.953 777.008 128.789C778.77 122.953 780.526 115.347 780.503 106.309C780.495 103.275 779.863 100.698 778.618 98.6148C777.362 96.5141 775.566 95.0574 773.479 94.1506C769.405 92.3804 764.268 92.7087 759.444 94.0212C754.555 95.3512 749.619 97.7891 745.737 100.707C741.956 103.548 738.746 107.171 738.072 111.027C735.751 124.292 736.575 132.579 737.321 140.072C737.453 141.399 737.582 142.701 737.692 144.002Z" fill="#7B2383" stroke="#140C22" stroke-width="4.4046" stroke-linejoin="round"/>
<path d="M760.537 136.539C760.27 137.077 760.229 137.702 760.423 138.27C760.617 138.838 761.03 139.301 761.567 139.552L795.991 155.704C796.963 156.16 798.118 155.83 798.718 154.925C801.481 150.76 809.652 138.035 820.35 120.291C823.978 114.274 824.408 108.772 822.355 104.161C820.358 99.677 816.213 96.4952 811.602 94.5329C806.965 92.5591 801.59 91.6971 796.706 92.0501C791.884 92.3986 787.155 93.9679 784.235 97.2877C780.268 101.798 775.485 109.333 771.168 116.782C766.826 124.275 762.864 131.845 760.537 136.539Z" fill="#7B2383" stroke="#140C22" stroke-width="4.4046" stroke-linejoin="round"/>
<path d="M642.415 356.57L733.51 146.944L747.846 138.022L791.401 136.479C797.461 141.358 808.084 157.288 802.101 181.975C794.623 212.833 756.504 218.857 751.529 226.195C746.553 233.532 677.654 394.401 678.146 374.92C678.637 355.439 657.206 354.57 642.415 356.57Z" fill="#7B2382" stroke="#140C22" stroke-width="4.4046"/>
<path d="M819.325 117.941L807.173 137.685C807.026 136.597 800.722 131.423 797.589 128.972L809.816 111.795C813.157 106.8 818.183 103.061 820.272 106.785C822.361 110.509 820.511 115.774 819.325 117.941Z" fill="#501755"/>
<path d="M764.052 216.472C791.119 206.403 799.759 188.286 800.695 180.486L798.021 169.105C794.908 175.781 785.922 191.327 774.879 200.096C761.075 211.058 744.564 210.517 741.586 216.472C739.205 221.236 701.076 304.89 682.31 346.122L695.437 348.829C713.617 307.507 750.302 224.456 751.601 222.832C752.9 221.208 760.443 217.915 764.052 216.472Z" fill="#501755"/>
<path d="M766.334 121.07C766.476 120.359 774.023 108.144 777.778 102.125C777.075 96.9228 769.365 97.9392 765.951 104.46C761.229 113.48 755.826 122.768 757.623 122.248C759.869 121.598 766.157 121.96 766.334 121.07Z" fill="#501755"/>
<path d="M789.454 126.376C777.33 121.15 764.228 122.519 753.431 125.378C748.008 126.814 743.098 128.644 739.094 130.267C737.323 130.985 735.777 131.641 734.447 132.206C732.683 132.955 731.296 133.544 730.262 133.904C727.634 134.82 726.105 136.815 725.522 139.104C724.96 141.305 725.271 143.722 726.081 145.823C726.891 147.926 728.29 149.939 730.178 151.25C732.125 152.601 734.596 153.187 737.212 152.275C738.481 151.833 739.98 151.227 741.69 150.535C745.487 148.999 750.326 147.041 756.006 145.523C764.114 143.357 773.308 142.31 781.981 145.082C790.351 147.758 794.964 154.202 797.707 161.164C799.823 166.533 800.725 171.893 801.4 175.904C801.614 177.177 801.805 178.314 802.006 179.273C803.11 184.563 808.494 186.443 812.643 185.642C814.819 185.222 816.952 184.062 818.397 182.047C819.861 180.006 820.465 177.298 819.944 174.093C818.197 163.345 813.631 136.797 789.454 126.376Z" fill="#501755" stroke="#140C22" stroke-width="4.4046" stroke-linejoin="round"/>
<path d="M678.487 292.964C690.359 290.628 705.978 304.966 712.303 312.426C714.655 324.023 699.052 351.414 693.408 340.904C687.764 330.394 659.268 333.605 645.725 336.525C645.401 325.253 666.615 295.299 678.487 292.964Z" fill="#41B70A" stroke="#140C22" stroke-width="4.4"/>
<path d="M598.72 379.759C597.903 391.831 580.012 403.206 571.168 407.385C559.358 406.655 536.939 384.495 548.551 381.764C560.164 379.032 564.437 350.675 565.123 336.839C576.094 339.443 599.536 367.687 598.72 379.759Z" fill="#41B70A" stroke="#140C22" stroke-width="4.4"/>
<path d="M660.481 63.2448C635.681 62.778 618.359 68.8828 607.03 79.4061C595.717 89.9147 590.71 104.524 589.9 120.411C589.077 128.253 589.648 138.42 598.006 146.7C606.29 154.906 621.774 160.795 649.561 161.353C671.675 161.797 687.33 157.236 697.598 151.357C702.726 148.421 706.527 145.145 709.102 141.986C711.634 138.88 713.109 135.722 713.276 133.016C714.504 116.689 710.139 99.4972 701.09 86.2556C692.015 72.974 678.145 63.5773 660.481 63.2448Z" fill="#EDCE2B" stroke="#0E1D08" stroke-width="4.4046" stroke-linejoin="round"/>
<path d="M632.78 73.0312C633.296 68.5691 634.979 67.5463 634.979 67.5463C640.247 67.1119 642.866 64.0444 650.565 63.6093C659.654 63.0956 675.432 68.247 676.605 68.5331C679.311 69.1939 685.963 74.8326 675.346 85.4312C669.96 90.8084 653.308 90.3498 643.596 86.2818C634.165 82.3317 632.574 74.8087 632.78 73.0312Z" fill="#BEA317"/>
<path d="M679.596 25.6336C679.774 24.8364 679.497 24.0057 678.875 23.4758C678.253 22.9459 677.389 22.8038 676.63 23.1067C668.853 26.211 660.501 34.6937 653.87 43.6268C647.247 52.5507 641.916 62.5041 640.446 69.1301C639.841 71.1748 640.226 73.0718 641.182 74.6599C642.11 76.2026 643.545 77.4157 645.028 78.3426C647.979 80.1875 651.734 81.2795 654.299 81.5017C654.418 81.512 654.543 81.5231 654.676 81.5349C656.935 81.7353 661.158 82.11 664.818 81.2055C666.79 80.7182 668.835 79.8081 670.32 78.0877C671.855 76.3106 672.562 73.9383 672.321 71.0202C672.18 69.3064 672.36 66.4014 672.804 62.6653C673.242 58.9808 673.916 54.6456 674.698 50.1543C676.263 41.174 678.247 31.6532 679.596 25.6336Z" fill="#CCCCCC" stroke="#0E1D08" stroke-width="4.4046" stroke-linejoin="round"/>
<path d="M677.346 25.6037C670.144 40.0063 662.116 58.0129 662.196 65.3019C662.295 74.3259 650.879 75.176 643.656 74.3437C646.098 77.268 651.408 79.0407 654.489 79.3076C654.595 79.3168 654.704 79.3264 654.818 79.3364C659.524 79.7501 670.914 80.7512 670.127 71.2012C669.489 63.4733 674.61 37.8808 677.346 25.6037Z" fill="#9D9D9D"/>
<path d="M623.642 139.225C637.109 142.387 649.985 142.325 668.277 139.049C686.569 135.772 705.893 123.572 707.142 117.282C708.391 110.991 697.9 86.1863 676.694 75.5604C675.814 75.1195 677.038 71.1684 677.792 69.5123C701.615 79.7036 713.043 106.825 711.079 132.867C710.584 141.158 693.697 159.812 649.605 159.151C595.21 158.335 590.489 135.741 592.096 120.582C595.24 127.37 611.378 136.345 623.642 139.225Z" fill="#BEA317"/>
<path d="M628.39 73.3932C622.245 73.9 604.709 86.3408 605.223 92.581C605.738 98.8212 625.068 89.3738 628.39 73.3932Z" fill="#D9D9D9"/>
<path d="M33.3082 418.715C33.3082 413.192 87.841 378.021 93.3639 378.021H774.131C778.272 378.021 797.356 363.336 806.649 358.313C809.854 356.58 813.96 358.309 816.529 360.893C834.255 378.724 775.696 409.479 758.915 408.491H131.623C127.016 408.491 123.044 411.82 120.059 415.33C102.401 436.09 33.3082 446.868 33.3082 441.868L33.3082 418.715Z" fill="#140C22"/>
<mask id="path-34-outside-1_4_1216" maskUnits="userSpaceOnUse" x="18.3968" y="267.529" width="798" height="165" fill="black">
<rect fill="white" x="18.3968" y="267.529" width="798" height="165"/>
<path fill-rule="evenodd" clip-rule="evenodd" d="M574.128 283.927C574.428 288.498 575.139 291.745 575.99 292.424C576.747 293.029 581.499 293.817 586.55 294.175C591.6 294.534 595.894 294.989 596.092 295.186C596.289 295.384 594.561 314.955 592.25 338.678C589.939 362.4 588.388 382.15 588.803 382.567C590.075 383.843 609.804 384.585 610.632 383.388C611.036 382.803 611.373 371.483 611.382 358.232C611.39 344.981 611.689 328.709 612.046 322.073L612.695 310.007L616.796 309.469C619.051 309.172 623.259 308.639 626.147 308.284L631.397 307.637V293.381V279.124L618.647 278.483C611.634 278.131 598.64 277.547 589.77 277.186L573.643 276.529L574.128 283.927ZM57.3968 280.247C45.1058 281.819 30.6408 284.648 28.1468 285.969C26.5928 286.792 26.3968 288.67 26.3968 302.753C26.3968 316.291 26.6278 318.7 27.9788 319.218C28.8488 319.552 32.8988 319.825 36.9788 319.825H44.3968L44.3978 325.075C44.3998 335.894 48.4298 423.191 48.9508 423.712C49.6788 424.44 64.0958 421.426 75.0508 418.256C90.7918 413.701 102.741 406.28 110.856 396.02C119.692 384.849 122.111 343.75 115.811 311.825C113.819 301.728 107.015 288.065 102.485 285.066C94.3128 279.654 76.7318 277.775 57.3968 280.247ZM656.718 280.215C651.67 280.825 647.17 281.699 646.718 282.155C645.417 283.471 643.585 383.179 644.846 384.06C646.427 385.165 675.181 384.983 675.873 383.863C677.067 381.931 678.312 357.39 677.249 356.733C676.683 356.384 672.567 355.793 668.101 355.421C663.636 355.048 659.862 354.623 659.715 354.476C659.568 354.329 661.682 337.585 664.414 317.267C667.145 296.949 669.384 279.988 669.388 279.575C669.398 278.71 668.996 278.73 656.718 280.215ZM502.723 281.075C501.905 282.365 496.204 377.965 496.903 378.664C497.76 379.522 513.723 382.832 514.286 382.269C514.618 381.938 515.224 371.028 515.633 358.024C516.043 345.021 516.518 333.962 516.689 333.448C516.861 332.934 519.368 340.346 522.262 349.919C525.156 359.492 528.733 371.15 530.211 375.825L532.897 384.325L545.77 385.119C552.849 385.556 558.783 385.772 558.956 385.599C559.573 384.983 568.501 285.596 567.986 285.081C567.188 284.283 547.191 279.697 546.691 280.198C546.451 280.438 545.154 295.64 543.81 313.98C542.466 332.32 541.22 347.775 541.043 348.325C540.865 348.875 536.952 334.025 532.347 315.325C527.743 296.625 523.508 280.994 522.936 280.59C521.082 279.279 503.595 279.699 502.723 281.075ZM142.397 284.199C142.397 286.027 142.688 290.966 143.044 295.174L143.69 302.825H151.476C160.486 302.825 159.947 303.487 160.965 291.168L161.639 283.01L154.768 282.382C150.989 282.036 146.659 281.556 145.147 281.314C142.61 280.909 142.397 281.133 142.397 284.199ZM761.897 281.417C760.797 281.667 755.946 282.594 751.117 283.478L742.338 285.085L742.617 297.205L742.897 309.325L748.647 309.625C754.147 309.912 754.398 310.042 754.419 312.625C754.498 322.339 757.422 384.183 757.821 384.582C758.763 385.524 780.386 379.59 786.431 376.731C789.777 375.149 795.162 371.329 798.398 368.243C803.803 363.087 804.417 362.05 805.956 355.478C810.668 335.358 808.079 302.674 800.775 290.073C796.694 283.032 792.379 281.423 776.897 281.173C769.747 281.058 762.997 281.168 761.897 281.417ZM207.897 284.924C190.847 286.434 176.784 287.704 176.647 287.747C176.51 287.79 176.397 292.304 176.397 297.778V307.731L181.147 307.24C191.956 306.124 205.917 305.053 206.202 305.317C206.369 305.473 197.717 317.689 186.975 332.463C174.499 349.621 167.435 360.204 167.42 361.757C167.407 363.095 167.915 368.227 168.548 373.161L169.698 382.132L189.208 381.478C199.939 381.119 214.721 380.825 222.058 380.825H235.397V363.825C235.397 351.228 235.085 346.825 234.192 346.825C233.529 346.825 226.332 348.253 218.199 349.999C210.066 351.744 203.144 352.906 202.818 352.579C202.492 352.253 210.813 340.29 221.311 325.994L240.397 300.003V291.473C240.397 286.782 240.059 282.771 239.647 282.561C239.235 282.351 224.947 283.414 207.897 284.924ZM349.398 282.502C345.274 282.733 341.554 283.268 341.133 283.689C340.242 284.58 336.078 305.839 336.677 306.438C336.898 306.66 339.963 306.434 343.488 305.937C347.013 305.44 350.186 305.324 350.54 305.679C350.894 306.034 349.724 323.2 347.941 343.825C346.158 364.45 344.969 381.64 345.298 382.025C345.966 382.805 368.61 384.733 369.397 384.077C369.672 383.847 370.144 376.288 370.445 367.278C370.746 358.268 371.277 350.612 371.623 350.265C372.935 348.954 378.559 351.113 381.762 354.158C384.284 356.555 385.893 359.756 388.385 367.325C393.372 382.479 396.81 388.428 402.872 392.401C405.168 393.905 407.601 394.325 414.02 394.325C418.536 394.325 422.443 394.1 422.702 393.825C422.962 393.55 423.498 388.263 423.895 382.075L424.616 370.825H422.071C415.069 370.825 412.085 367.389 407.747 354.325C405.794 348.446 404.073 345.302 401.253 342.467L397.417 338.609L401.508 333.967C410.312 323.976 413.186 315.451 411.428 304.535C409.702 293.817 403.474 287.357 392 284.385C385.813 282.783 362.639 281.758 349.398 282.502ZM322.397 283.481C312.807 284.952 313.397 284.603 313.397 288.811C313.397 293.825 311.903 294.67 308.566 291.542C303.649 286.932 296.017 283.825 289.612 283.825C279.8 283.825 268.854 287.858 260.683 294.483C250.764 302.526 245.425 322.054 250.358 332.245C254.637 341.084 264.495 346.825 275.395 346.825C286.424 346.825 299.643 342.81 306.931 337.247L311.397 333.838V343.864C311.397 357.19 308.69 363.52 301.359 367.336C297.098 369.554 283.478 371.174 275.906 370.363C267.815 369.496 265.621 367.696 261.843 358.825C260.555 355.8 259.01 353.443 258.41 353.588C257.81 353.733 254.45 355.693 250.943 357.945L244.567 362.038L247.062 368.682C250.084 376.728 251.573 378.522 257.397 381.133C260.789 382.654 264.974 383.295 274.397 383.741C298.21 384.866 309.007 382.801 318.948 375.218C326.817 369.216 328.994 358.95 329.845 323.825C330.172 310.35 330.717 295.613 331.056 291.075L331.672 282.825L328.285 282.961C326.421 283.036 323.772 283.27 322.397 283.481ZM692.003 292.575C691.047 303.373 687.117 383.879 687.526 384.278C687.9 384.643 730.927 379.226 735.182 378.278C737.403 377.784 737.458 377.485 737.182 367.547L736.897 357.325L723.147 357.047L709.397 356.769V351.841V346.913L716.647 346.619L723.897 346.325V337.825V329.325L717.397 329.085C713.822 328.953 708.984 328.588 706.647 328.274L702.397 327.702V316.91V306.118L710.048 305.472C714.256 305.116 719.993 304.82 722.798 304.814C725.602 304.808 729.585 304.524 731.647 304.183L735.397 303.563V294.694V285.825H713.998H692.6L692.003 292.575ZM438.933 290.075C437.44 294.726 432.132 333.416 431.696 342.825C430.459 369.551 437.201 381.363 454.397 382.593C460.553 383.033 461.933 382.763 467.995 379.926C471.705 378.19 475.079 377.119 475.492 377.547C475.905 377.975 476.39 379.675 476.57 381.325C476.893 384.286 476.981 384.328 483.397 384.583C486.972 384.725 490.392 384.5 490.998 384.083C491.743 383.57 492.293 372.1 492.7 348.575L493.301 313.825H483.775H474.248L474.953 328.622C475.545 341.061 475.386 344.351 473.956 349.27C471.548 357.555 468.031 360.825 461.531 360.825C457.476 360.825 456.211 360.397 454.954 358.602C452.535 355.149 453.002 341.896 456.394 317.7C458.043 305.944 459.393 295.593 459.394 294.698C459.396 293.466 457.153 292.555 450.147 290.941C439.319 288.448 439.452 288.458 438.933 290.075ZM294.557 297.991C299.557 299.489 306.043 306.423 306.946 311.235C308.44 319.2 304.856 326.02 297.093 329.98C293.636 331.744 291.704 331.985 283.968 331.622C270.592 330.993 263.761 326.96 262.702 319.065C262.091 314.506 264.017 310.03 268.759 304.99C275.501 297.824 285.209 295.19 294.557 297.991ZM783.051 304.146C788.042 306.727 790.428 315.572 790.353 331.211C790.295 343.51 789.228 348.342 785.769 351.988C783.045 354.858 771.636 361.397 770.804 360.565C770.589 360.35 769.964 349.858 769.416 337.25C768.867 324.641 768.2 311.452 767.933 307.94L767.447 301.555L773.717 302.059C777.166 302.335 781.366 303.275 783.051 304.146ZM382.511 303.822C386.211 304.506 388.601 305.619 390.147 307.377C397.964 316.268 383.463 331.825 367.359 331.825H362.397V317.898C362.397 305.476 362.586 303.922 364.147 303.514C367.418 302.659 377.105 302.822 382.511 303.822ZM84.8668 312.161C87.9188 313.829 89.2388 315.416 90.5788 319.023C94.1298 328.589 95.3898 349.406 93.3298 364.503C91.6998 376.448 87.9008 381.021 73.6418 388.202L66.3968 391.85L66.3308 387.588C66.2948 385.243 65.5048 366.527 64.5758 345.997C63.6458 325.467 62.9868 308.569 63.1088 308.446C63.2318 308.323 67.2848 308.621 72.1148 309.107C77.8698 309.687 82.2658 310.74 84.8668 312.161ZM132.207 351.074C130.244 375.959 129.875 384.512 130.741 385.076C131.377 385.49 137.072 385.715 143.397 385.577L154.897 385.325L154.639 363.825C154.498 352 154.115 336.812 153.789 330.075L153.196 317.825H144.013H134.83L132.207 351.074Z"/>
</mask>
<path fill-rule="evenodd" clip-rule="evenodd" d="M574.128 283.927C574.428 288.498 575.139 291.745 575.99 292.424C576.747 293.029 581.499 293.817 586.55 294.175C591.6 294.534 595.894 294.989 596.092 295.186C596.289 295.384 594.561 314.955 592.25 338.678C589.939 362.4 588.388 382.15 588.803 382.567C590.075 383.843 609.804 384.585 610.632 383.388C611.036 382.803 611.373 371.483 611.382 358.232C611.39 344.981 611.689 328.709 612.046 322.073L612.695 310.007L616.796 309.469C619.051 309.172 623.259 308.639 626.147 308.284L631.397 307.637V293.381V279.124L618.647 278.483C611.634 278.131 598.64 277.547 589.77 277.186L573.643 276.529L574.128 283.927ZM57.3968 280.247C45.1058 281.819 30.6408 284.648 28.1468 285.969C26.5928 286.792 26.3968 288.67 26.3968 302.753C26.3968 316.291 26.6278 318.7 27.9788 319.218C28.8488 319.552 32.8988 319.825 36.9788 319.825H44.3968L44.3978 325.075C44.3998 335.894 48.4298 423.191 48.9508 423.712C49.6788 424.44 64.0958 421.426 75.0508 418.256C90.7918 413.701 102.741 406.28 110.856 396.02C119.692 384.849 122.111 343.75 115.811 311.825C113.819 301.728 107.015 288.065 102.485 285.066C94.3128 279.654 76.7318 277.775 57.3968 280.247ZM656.718 280.215C651.67 280.825 647.17 281.699 646.718 282.155C645.417 283.471 643.585 383.179 644.846 384.06C646.427 385.165 675.181 384.983 675.873 383.863C677.067 381.931 678.312 357.39 677.249 356.733C676.683 356.384 672.567 355.793 668.101 355.421C663.636 355.048 659.862 354.623 659.715 354.476C659.568 354.329 661.682 337.585 664.414 317.267C667.145 296.949 669.384 279.988 669.388 279.575C669.398 278.71 668.996 278.73 656.718 280.215ZM502.723 281.075C501.905 282.365 496.204 377.965 496.903 378.664C497.76 379.522 513.723 382.832 514.286 382.269C514.618 381.938 515.224 371.028 515.633 358.024C516.043 345.021 516.518 333.962 516.689 333.448C516.861 332.934 519.368 340.346 522.262 349.919C525.156 359.492 528.733 371.15 530.211 375.825L532.897 384.325L545.77 385.119C552.849 385.556 558.783 385.772 558.956 385.599C559.573 384.983 568.501 285.596 567.986 285.081C567.188 284.283 547.191 279.697 546.691 280.198C546.451 280.438 545.154 295.64 543.81 313.98C542.466 332.32 541.22 347.775 541.043 348.325C540.865 348.875 536.952 334.025 532.347 315.325C527.743 296.625 523.508 280.994 522.936 280.59C521.082 279.279 503.595 279.699 502.723 281.075ZM142.397 284.199C142.397 286.027 142.688 290.966 143.044 295.174L143.69 302.825H151.476C160.486 302.825 159.947 303.487 160.965 291.168L161.639 283.01L154.768 282.382C150.989 282.036 146.659 281.556 145.147 281.314C142.61 280.909 142.397 281.133 142.397 284.199ZM761.897 281.417C760.797 281.667 755.946 282.594 751.117 283.478L742.338 285.085L742.617 297.205L742.897 309.325L748.647 309.625C754.147 309.912 754.398 310.042 754.419 312.625C754.498 322.339 757.422 384.183 757.821 384.582C758.763 385.524 780.386 379.59 786.431 376.731C789.777 375.149 795.162 371.329 798.398 368.243C803.803 363.087 804.417 362.05 805.956 355.478C810.668 335.358 808.079 302.674 800.775 290.073C796.694 283.032 792.379 281.423 776.897 281.173C769.747 281.058 762.997 281.168 761.897 281.417ZM207.897 284.924C190.847 286.434 176.784 287.704 176.647 287.747C176.51 287.79 176.397 292.304 176.397 297.778V307.731L181.147 307.24C191.956 306.124 205.917 305.053 206.202 305.317C206.369 305.473 197.717 317.689 186.975 332.463C174.499 349.621 167.435 360.204 167.42 361.757C167.407 363.095 167.915 368.227 168.548 373.161L169.698 382.132L189.208 381.478C199.939 381.119 214.721 380.825 222.058 380.825H235.397V363.825C235.397 351.228 235.085 346.825 234.192 346.825C233.529 346.825 226.332 348.253 218.199 349.999C210.066 351.744 203.144 352.906 202.818 352.579C202.492 352.253 210.813 340.29 221.311 325.994L240.397 300.003V291.473C240.397 286.782 240.059 282.771 239.647 282.561C239.235 282.351 224.947 283.414 207.897 284.924ZM349.398 282.502C345.274 282.733 341.554 283.268 341.133 283.689C340.242 284.58 336.078 305.839 336.677 306.438C336.898 306.66 339.963 306.434 343.488 305.937C347.013 305.44 350.186 305.324 350.54 305.679C350.894 306.034 349.724 323.2 347.941 343.825C346.158 364.45 344.969 381.64 345.298 382.025C345.966 382.805 368.61 384.733 369.397 384.077C369.672 383.847 370.144 376.288 370.445 367.278C370.746 358.268 371.277 350.612 371.623 350.265C372.935 348.954 378.559 351.113 381.762 354.158C384.284 356.555 385.893 359.756 388.385 367.325C393.372 382.479 396.81 388.428 402.872 392.401C405.168 393.905 407.601 394.325 414.02 394.325C418.536 394.325 422.443 394.1 422.702 393.825C422.962 393.55 423.498 388.263 423.895 382.075L424.616 370.825H422.071C415.069 370.825 412.085 367.389 407.747 354.325C405.794 348.446 404.073 345.302 401.253 342.467L397.417 338.609L401.508 333.967C410.312 323.976 413.186 315.451 411.428 304.535C409.702 293.817 403.474 287.357 392 284.385C385.813 282.783 362.639 281.758 349.398 282.502ZM322.397 283.481C312.807 284.952 313.397 284.603 313.397 288.811C313.397 293.825 311.903 294.67 308.566 291.542C303.649 286.932 296.017 283.825 289.612 283.825C279.8 283.825 268.854 287.858 260.683 294.483C250.764 302.526 245.425 322.054 250.358 332.245C254.637 341.084 264.495 346.825 275.395 346.825C286.424 346.825 299.643 342.81 306.931 337.247L311.397 333.838V343.864C311.397 357.19 308.69 363.52 301.359 367.336C297.098 369.554 283.478 371.174 275.906 370.363C267.815 369.496 265.621 367.696 261.843 358.825C260.555 355.8 259.01 353.443 258.41 353.588C257.81 353.733 254.45 355.693 250.943 357.945L244.567 362.038L247.062 368.682C250.084 376.728 251.573 378.522 257.397 381.133C260.789 382.654 264.974 383.295 274.397 383.741C298.21 384.866 309.007 382.801 318.948 375.218C326.817 369.216 328.994 358.95 329.845 323.825C330.172 310.35 330.717 295.613 331.056 291.075L331.672 282.825L328.285 282.961C326.421 283.036 323.772 283.27 322.397 283.481ZM692.003 292.575C691.047 303.373 687.117 383.879 687.526 384.278C687.9 384.643 730.927 379.226 735.182 378.278C737.403 377.784 737.458 377.485 737.182 367.547L736.897 357.325L723.147 357.047L709.397 356.769V351.841V346.913L716.647 346.619L723.897 346.325V337.825V329.325L717.397 329.085C713.822 328.953 708.984 328.588 706.647 328.274L702.397 327.702V316.91V306.118L710.048 305.472C714.256 305.116 719.993 304.82 722.798 304.814C725.602 304.808 729.585 304.524 731.647 304.183L735.397 303.563V294.694V285.825H713.998H692.6L692.003 292.575ZM438.933 290.075C437.44 294.726 432.132 333.416 431.696 342.825C430.459 369.551 437.201 381.363 454.397 382.593C460.553 383.033 461.933 382.763 467.995 379.926C471.705 378.19 475.079 377.119 475.492 377.547C475.905 377.975 476.39 379.675 476.57 381.325C476.893 384.286 476.981 384.328 483.397 384.583C486.972 384.725 490.392 384.5 490.998 384.083C491.743 383.57 492.293 372.1 492.7 348.575L493.301 313.825H483.775H474.248L474.953 328.622C475.545 341.061 475.386 344.351 473.956 349.27C471.548 357.555 468.031 360.825 461.531 360.825C457.476 360.825 456.211 360.397 454.954 358.602C452.535 355.149 453.002 341.896 456.394 317.7C458.043 305.944 459.393 295.593 459.394 294.698C459.396 293.466 457.153 292.555 450.147 290.941C439.319 288.448 439.452 288.458 438.933 290.075ZM294.557 297.991C299.557 299.489 306.043 306.423 306.946 311.235C308.44 319.2 304.856 326.02 297.093 329.98C293.636 331.744 291.704 331.985 283.968 331.622C270.592 330.993 263.761 326.96 262.702 319.065C262.091 314.506 264.017 310.03 268.759 304.99C275.501 297.824 285.209 295.19 294.557 297.991ZM783.051 304.146C788.042 306.727 790.428 315.572 790.353 331.211C790.295 343.51 789.228 348.342 785.769 351.988C783.045 354.858 771.636 361.397 770.804 360.565C770.589 360.35 769.964 349.858 769.416 337.25C768.867 324.641 768.2 311.452 767.933 307.94L767.447 301.555L773.717 302.059C777.166 302.335 781.366 303.275 783.051 304.146ZM382.511 303.822C386.211 304.506 388.601 305.619 390.147 307.377C397.964 316.268 383.463 331.825 367.359 331.825H362.397V317.898C362.397 305.476 362.586 303.922 364.147 303.514C367.418 302.659 377.105 302.822 382.511 303.822ZM84.8668 312.161C87.9188 313.829 89.2388 315.416 90.5788 319.023C94.1298 328.589 95.3898 349.406 93.3298 364.503C91.6998 376.448 87.9008 381.021 73.6418 388.202L66.3968 391.85L66.3308 387.588C66.2948 385.243 65.5048 366.527 64.5758 345.997C63.6458 325.467 62.9868 308.569 63.1088 308.446C63.2318 308.323 67.2848 308.621 72.1148 309.107C77.8698 309.687 82.2658 310.74 84.8668 312.161ZM132.207 351.074C130.244 375.959 129.875 384.512 130.741 385.076C131.377 385.49 137.072 385.715 143.397 385.577L154.897 385.325L154.639 363.825C154.498 352 154.115 336.812 153.789 330.075L153.196 317.825H144.013H134.83L132.207 351.074Z" fill="#EDCE2B"/>
<path fill-rule="evenodd" clip-rule="evenodd" d="M574.128 283.927C574.428 288.498 575.139 291.745 575.99 292.424C576.747 293.029 581.499 293.817 586.55 294.175C591.6 294.534 595.894 294.989 596.092 295.186C596.289 295.384 594.561 314.955 592.25 338.678C589.939 362.4 588.388 382.15 588.803 382.567C590.075 383.843 609.804 384.585 610.632 383.388C611.036 382.803 611.373 371.483 611.382 358.232C611.39 344.981 611.689 328.709 612.046 322.073L612.695 310.007L616.796 309.469C619.051 309.172 623.259 308.639 626.147 308.284L631.397 307.637V293.381V279.124L618.647 278.483C611.634 278.131 598.64 277.547 589.77 277.186L573.643 276.529L574.128 283.927ZM57.3968 280.247C45.1058 281.819 30.6408 284.648 28.1468 285.969C26.5928 286.792 26.3968 288.67 26.3968 302.753C26.3968 316.291 26.6278 318.7 27.9788 319.218C28.8488 319.552 32.8988 319.825 36.9788 319.825H44.3968L44.3978 325.075C44.3998 335.894 48.4298 423.191 48.9508 423.712C49.6788 424.44 64.0958 421.426 75.0508 418.256C90.7918 413.701 102.741 406.28 110.856 396.02C119.692 384.849 122.111 343.75 115.811 311.825C113.819 301.728 107.015 288.065 102.485 285.066C94.3128 279.654 76.7318 277.775 57.3968 280.247ZM656.718 280.215C651.67 280.825 647.17 281.699 646.718 282.155C645.417 283.471 643.585 383.179 644.846 384.06C646.427 385.165 675.181 384.983 675.873 383.863C677.067 381.931 678.312 357.39 677.249 356.733C676.683 356.384 672.567 355.793 668.101 355.421C663.636 355.048 659.862 354.623 659.715 354.476C659.568 354.329 661.682 337.585 664.414 317.267C667.145 296.949 669.384 279.988 669.388 279.575C669.398 278.71 668.996 278.73 656.718 280.215ZM502.723 281.075C501.905 282.365 496.204 377.965 496.903 378.664C497.76 379.522 513.723 382.832 514.286 382.269C514.618 381.938 515.224 371.028 515.633 358.024C516.043 345.021 516.518 333.962 516.689 333.448C516.861 332.934 519.368 340.346 522.262 349.919C525.156 359.492 528.733 371.15 530.211 375.825L532.897 384.325L545.77 385.119C552.849 385.556 558.783 385.772 558.956 385.599C559.573 384.983 568.501 285.596 567.986 285.081C567.188 284.283 547.191 279.697 546.691 280.198C546.451 280.438 545.154 295.64 543.81 313.98C542.466 332.32 541.22 347.775 541.043 348.325C540.865 348.875 536.952 334.025 532.347 315.325C527.743 296.625 523.508 280.994 522.936 280.59C521.082 279.279 503.595 279.699 502.723 281.075ZM142.397 284.199C142.397 286.027 142.688 290.966 143.044 295.174L143.69 302.825H151.476C160.486 302.825 159.947 303.487 160.965 291.168L161.639 283.01L154.768 282.382C150.989 282.036 146.659 281.556 145.147 281.314C142.61 280.909 142.397 281.133 142.397 284.199ZM761.897 281.417C760.797 281.667 755.946 282.594 751.117 283.478L742.338 285.085L742.617 297.205L742.897 309.325L748.647 309.625C754.147 309.912 754.398 310.042 754.419 312.625C754.498 322.339 757.422 384.183 757.821 384.582C758.763 385.524 780.386 379.59 786.431 376.731C789.777 375.149 795.162 371.329 798.398 368.243C803.803 363.087 804.417 362.05 805.956 355.478C810.668 335.358 808.079 302.674 800.775 290.073C796.694 283.032 792.379 281.423 776.897 281.173C769.747 281.058 762.997 281.168 761.897 281.417ZM207.897 284.924C190.847 286.434 176.784 287.704 176.647 287.747C176.51 287.79 176.397 292.304 176.397 297.778V307.731L181.147 307.24C191.956 306.124 205.917 305.053 206.202 305.317C206.369 305.473 197.717 317.689 186.975 332.463C174.499 349.621 167.435 360.204 167.42 361.757C167.407 363.095 167.915 368.227 168.548 373.161L169.698 382.132L189.208 381.478C199.939 381.119 214.721 380.825 222.058 380.825H235.397V363.825C235.397 351.228 235.085 346.825 234.192 346.825C233.529 346.825 226.332 348.253 218.199 349.999C210.066 351.744 203.144 352.906 202.818 352.579C202.492 352.253 210.813 340.29 221.311 325.994L240.397 300.003V291.473C240.397 286.782 240.059 282.771 239.647 282.561C239.235 282.351 224.947 283.414 207.897 284.924ZM349.398 282.502C345.274 282.733 341.554 283.268 341.133 283.689C340.242 284.58 336.078 305.839 336.677 306.438C336.898 306.66 339.963 306.434 343.488 305.937C347.013 305.44 350.186 305.324 350.54 305.679C350.894 306.034 349.724 323.2 347.941 343.825C346.158 364.45 344.969 381.64 345.298 382.025C345.966 382.805 368.61 384.733 369.397 384.077C369.672 383.847 370.144 376.288 370.445 367.278C370.746 358.268 371.277 350.612 371.623 350.265C372.935 348.954 378.559 351.113 381.762 354.158C384.284 356.555 385.893 359.756 388.385 367.325C393.372 382.479 396.81 388.428 402.872 392.401C405.168 393.905 407.601 394.325 414.02 394.325C418.536 394.325 422.443 394.1 422.702 393.825C422.962 393.55 423.498 388.263 423.895 382.075L424.616 370.825H422.071C415.069 370.825 412.085 367.389 407.747 354.325C405.794 348.446 404.073 345.302 401.253 342.467L397.417 338.609L401.508 333.967C410.312 323.976 413.186 315.451 411.428 304.535C409.702 293.817 403.474 287.357 392 284.385C385.813 282.783 362.639 281.758 349.398 282.502ZM322.397 283.481C312.807 284.952 313.397 284.603 313.397 288.811C313.397 293.825 311.903 294.67 308.566 291.542C303.649 286.932 296.017 283.825 289.612 283.825C279.8 283.825 268.854 287.858 260.683 294.483C250.764 302.526 245.425 322.054 250.358 332.245C254.637 341.084 264.495 346.825 275.395 346.825C286.424 346.825 299.643 342.81 306.931 337.247L311.397 333.838V343.864C311.397 357.19 308.69 363.52 301.359 367.336C297.098 369.554 283.478 371.174 275.906 370.363C267.815 369.496 265.621 367.696 261.843 358.825C260.555 355.8 259.01 353.443 258.41 353.588C257.81 353.733 254.45 355.693 250.943 357.945L244.567 362.038L247.062 368.682C250.084 376.728 251.573 378.522 257.397 381.133C260.789 382.654 264.974 383.295 274.397 383.741C298.21 384.866 309.007 382.801 318.948 375.218C326.817 369.216 328.994 358.95 329.845 323.825C330.172 310.35 330.717 295.613 331.056 291.075L331.672 282.825L328.285 282.961C326.421 283.036 323.772 283.27 322.397 283.481ZM692.003 292.575C691.047 303.373 687.117 383.879 687.526 384.278C687.9 384.643 730.927 379.226 735.182 378.278C737.403 377.784 737.458 377.485 737.182 367.547L736.897 357.325L723.147 357.047L709.397 356.769V351.841V346.913L716.647 346.619L723.897 346.325V337.825V329.325L717.397 329.085C713.822 328.953 708.984 328.588 706.647 328.274L702.397 327.702V316.91V306.118L710.048 305.472C714.256 305.116 719.993 304.82 722.798 304.814C725.602 304.808 729.585 304.524 731.647 304.183L735.397 303.563V294.694V285.825H713.998H692.6L692.003 292.575ZM438.933 290.075C437.44 294.726 432.132 333.416 431.696 342.825C430.459 369.551 437.201 381.363 454.397 382.593C460.553 383.033 461.933 382.763 467.995 379.926C471.705 378.19 475.079 377.119 475.492 377.547C475.905 377.975 476.39 379.675 476.57 381.325C476.893 384.286 476.981 384.328 483.397 384.583C486.972 384.725 490.392 384.5 490.998 384.083C491.743 383.57 492.293 372.1 492.7 348.575L493.301 313.825H483.775H474.248L474.953 328.622C475.545 341.061 475.386 344.351 473.956 349.27C471.548 357.555 468.031 360.825 461.531 360.825C457.476 360.825 456.211 360.397 454.954 358.602C452.535 355.149 453.002 341.896 456.394 317.7C458.043 305.944 459.393 295.593 459.394 294.698C459.396 293.466 457.153 292.555 450.147 290.941C439.319 288.448 439.452 288.458 438.933 290.075ZM294.557 297.991C299.557 299.489 306.043 306.423 306.946 311.235C308.44 319.2 304.856 326.02 297.093 329.98C293.636 331.744 291.704 331.985 283.968 331.622C270.592 330.993 263.761 326.96 262.702 319.065C262.091 314.506 264.017 310.03 268.759 304.99C275.501 297.824 285.209 295.19 294.557 297.991ZM783.051 304.146C788.042 306.727 790.428 315.572 790.353 331.211C790.295 343.51 789.228 348.342 785.769 351.988C783.045 354.858 771.636 361.397 770.804 360.565C770.589 360.35 769.964 349.858 769.416 337.25C768.867 324.641 768.2 311.452 767.933 307.94L767.447 301.555L773.717 302.059C777.166 302.335 781.366 303.275 783.051 304.146ZM382.511 303.822C386.211 304.506 388.601 305.619 390.147 307.377C397.964 316.268 383.463 331.825 367.359 331.825H362.397V317.898C362.397 305.476 362.586 303.922 364.147 303.514C367.418 302.659 377.105 302.822 382.511 303.822ZM84.8668 312.161C87.9188 313.829 89.2388 315.416 90.5788 319.023C94.1298 328.589 95.3898 349.406 93.3298 364.503C91.6998 376.448 87.9008 381.021 73.6418 388.202L66.3968 391.85L66.3308 387.588C66.2948 385.243 65.5048 366.527 64.5758 345.997C63.6458 325.467 62.9868 308.569 63.1088 308.446C63.2318 308.323 67.2848 308.621 72.1148 309.107C77.8698 309.687 82.2658 310.74 84.8668 312.161ZM132.207 351.074C130.244 375.959 129.875 384.512 130.741 385.076C131.377 385.49 137.072 385.715 143.397 385.577L154.897 385.325L154.639 363.825C154.498 352 154.115 336.812 153.789 330.075L153.196 317.825H144.013H134.83L132.207 351.074Z" stroke="#1D0809" stroke-width="16" mask="url(#path-34-outside-1_4_1216)"/>
<path d="M611.509 342.161C604.921 338.492 598.969 333.996 593.147 329.369C592.861 332.372 592.561 335.487 592.25 338.678C589.939 362.4 588.388 382.15 588.803 382.567C590.075 383.843 609.804 384.585 610.632 383.388C611.036 382.803 611.373 371.483 611.382 358.232C611.385 353.083 611.432 347.479 611.509 342.161Z" fill="#D0AF00"/>
<path d="M420.378 370.748C421.75 371.086 423.145 371.375 424.565 371.609L423.895 382.075C423.498 388.263 422.962 393.55 422.702 393.825C422.443 394.1 418.536 394.325 414.02 394.325C407.601 394.325 405.168 393.905 402.872 392.401C396.81 388.428 393.372 382.479 388.385 367.325C385.893 359.756 384.284 356.555 381.762 354.158C378.559 351.113 372.935 348.954 371.623 350.265C371.277 350.612 370.746 358.268 370.445 367.278C370.144 376.288 369.672 383.847 369.397 384.077C368.61 384.733 345.966 382.805 345.298 382.025C344.969 381.64 346.158 364.45 347.941 343.825C348.513 337.209 349.022 330.95 349.437 325.486C360.58 330.837 370.226 338.693 379.748 346.449C391.383 355.925 402.833 365.251 416.607 369.677C417.728 370.274 418.965 370.609 420.378 370.748Z" fill="#D0AF00"/>
<path d="M133.939 329.11C139.529 333.135 144.997 337.894 150.573 342.747C151.811 343.825 153.055 344.908 154.307 345.988C154.451 351.85 154.572 358.216 154.639 363.825L154.897 385.325L143.397 385.577C137.072 385.715 131.377 385.49 130.741 385.076C129.875 384.512 130.244 375.959 132.207 351.074L133.939 329.11Z" fill="#D0AF00"/>
<path d="M754.971 328.982C755.858 350.558 757.526 384.288 757.821 384.582C758.763 385.524 780.386 379.59 786.431 376.731C789.777 375.149 795.162 371.329 798.398 368.243C800.979 365.781 802.467 364.258 803.486 362.623C795.985 361.851 789.603 358.436 783.573 353.824C779.289 356.968 771.486 361.248 770.804 360.565C770.613 360.374 770.099 352.085 769.603 341.406C764.995 337.073 760.237 332.708 754.971 328.982Z" fill="#D0AF00"/>
<path d="M689.662 334.04C690.019 333.713 690.374 333.387 690.727 333.061C694.372 329.707 697.905 326.454 702.397 323.901V327.702L706.647 328.274C708.984 328.588 713.822 328.953 717.397 329.085L723.897 329.325V346.325L709.397 346.913V356.769L736.897 357.325L737.182 367.547C737.458 377.485 737.403 377.784 735.182 378.278C730.927 379.226 687.9 384.643 687.526 384.278C687.295 384.053 688.444 358.35 689.662 334.04Z" fill="#D0AF00"/>
<path d="M644.553 350.784C644.916 350.782 645.282 350.777 645.65 350.77C651.206 350.659 656.021 350.177 660.245 349.409C659.863 352.584 659.666 354.428 659.715 354.476C659.862 354.623 663.636 355.048 668.101 355.421C672.567 355.793 676.683 356.384 677.249 356.733C678.312 357.39 677.067 381.931 675.873 383.863C675.181 384.983 646.427 385.165 644.846 384.06C644.364 383.723 644.334 368.968 644.553 350.784Z" fill="#D0AF00"/>
<path d="M45.7575 362.179C51.1141 354.107 57.3491 346.022 64.2638 339.018C64.3636 341.282 64.4678 343.615 64.5758 345.997C65.5048 366.527 66.2948 385.243 66.3307 387.588L66.3968 391.85L73.6418 388.202C87.9008 381.021 91.6997 376.448 93.3298 364.503C95.2838 350.182 94.2506 330.715 91.1082 320.586C93.2594 319.813 95.4411 319.201 97.6496 318.77C104.683 317.398 111.128 318.056 117.222 320.088C121.656 350.48 118.945 385.793 110.856 396.02C102.741 406.28 90.7918 413.701 75.0508 418.256C64.0958 421.426 49.6788 424.44 48.9508 423.712C48.63 423.391 46.9795 390.185 45.7575 362.179Z" fill="#D0AF00"/>
<path d="M169.293 357.986C180.41 365.873 192.725 371.77 207.65 371.77C218.37 371.77 227.344 369.127 235.397 365.02V380.825H222.058C214.721 380.825 199.939 381.119 189.208 381.478L169.698 382.132L168.548 373.161C167.915 368.227 167.407 363.095 167.42 361.757C167.424 361.291 168.064 360.012 169.293 357.986Z" fill="#D0AF00"/>
<path d="M263.614 344.46C269.063 339.884 274.594 335.341 280.589 331.377C281.665 331.485 282.791 331.567 283.968 331.622C291.704 331.985 293.636 331.744 297.093 329.98C301.719 327.62 304.862 324.244 306.329 320.215C310.771 319.286 315.52 318.77 320.65 318.77C323.878 318.77 326.975 319.001 329.958 319.433C329.918 320.902 329.88 322.371 329.845 323.825C328.994 358.95 326.817 369.216 318.948 375.218C309.007 382.801 298.21 384.866 274.397 383.741C264.974 383.295 260.789 382.654 257.397 381.133C251.573 378.522 250.084 376.728 247.062 368.682L244.567 362.038L250.943 357.945C254.45 355.693 257.81 353.733 258.41 353.588C259.01 353.443 260.555 355.8 261.843 358.825C265.621 367.696 267.815 369.496 275.906 370.363C283.478 371.174 297.098 369.554 301.359 367.336C308.69 363.52 311.397 357.19 311.397 343.864V333.838L306.931 337.247C299.643 342.81 286.424 346.825 275.395 346.825C271.231 346.825 267.22 345.987 263.614 344.46Z" fill="#D0AF00"/>
<path d="M436.138 372.277C437.933 372.195 439.769 372.028 441.65 371.77C466.999 368.291 478.513 351.471 489.577 335.309C490.723 333.635 491.864 331.968 493.015 330.323L492.7 348.575C492.293 372.1 491.743 383.57 490.998 384.083C490.392 384.5 486.972 384.725 483.397 384.583C476.981 384.328 476.893 384.286 476.57 381.325C476.39 379.675 475.905 377.975 475.492 377.547C475.079 377.119 471.705 378.19 467.995 379.926C461.933 382.763 460.553 383.033 454.397 382.593C445.802 381.978 439.819 378.72 436.138 372.277Z" fill="#D0AF00"/>
<path d="M499.775 321.317C507.202 312.338 515.994 305.22 529.326 303.281C530.289 307.047 531.309 311.108 532.347 315.325C536.952 334.025 540.865 348.875 541.043 348.325C541.22 347.775 542.466 332.32 543.81 313.98C544.085 310.221 544.359 306.593 544.622 303.199C552.698 304.168 559.706 306.657 566.114 310.019C563.586 339.653 559.373 385.183 558.956 385.599C558.783 385.772 552.849 385.556 545.77 385.119L532.897 384.325L530.211 375.825C528.733 371.15 525.156 359.492 522.262 349.919C519.368 340.346 516.861 332.934 516.689 333.448C516.518 333.962 516.043 345.021 515.633 358.024C515.224 371.028 514.618 381.938 514.286 382.269C513.723 382.832 497.76 379.522 496.903 378.664C496.511 378.272 498.132 348.031 499.775 321.317Z" fill="#D0AF00"/>
<path d="M160.861 292.438L142.571 288.53C142.463 286.655 142.397 285.072 142.397 284.199C142.397 281.133 142.61 280.909 145.147 281.314C146.659 281.556 150.989 282.036 154.768 282.382L161.639 283.01L160.965 291.168C160.928 291.607 160.894 292.031 160.861 292.438Z" fill="#D9D9D9"/>
<path d="M240.395 290.885L194.886 299.708L176.402 295.758C176.426 291.236 176.527 287.784 176.647 287.747C176.784 287.704 190.847 286.434 207.897 284.924C224.947 283.414 239.235 282.351 239.647 282.561C240.041 282.762 240.368 286.451 240.395 290.885Z" fill="#D9D9D9"/>
<path d="M330.714 297.438L312.074 299.708L269.02 289.084C275.572 285.734 282.86 283.825 289.612 283.825C296.017 283.825 303.649 286.932 308.566 291.542C311.903 294.67 313.397 293.825 313.397 288.811C313.397 287.236 313.314 286.3 313.713 285.667C314.381 284.609 316.395 284.401 322.397 283.481C323.772 283.27 326.421 283.036 328.285 282.961L331.672 282.825L331.056 291.075C330.956 292.41 330.838 294.628 330.714 297.438Z" fill="#D9D9D9"/>
<path d="M402.049 288.749L338.082 296.54C339.208 290.627 340.65 284.171 341.133 283.689C341.554 283.268 345.274 282.733 349.398 282.502C362.639 281.758 385.813 282.783 392 284.385C395.966 285.412 399.306 286.857 402.049 288.749Z" fill="#D9D9D9"/>
<path d="M631.397 292.276L574.471 287.432C574.328 286.386 574.212 285.208 574.128 283.927L573.643 276.529L589.77 277.186C598.64 277.547 611.634 278.131 618.647 278.483L631.397 279.124V292.276Z" fill="#D9D9D9"/>
<path d="M668.336 287.821L646.016 290.611C646.253 285.538 646.493 282.382 646.718 282.155C647.17 281.699 651.67 280.825 656.718 280.215C668.996 278.73 669.398 278.71 669.388 279.575C669.386 279.748 668.993 282.819 668.336 287.821Z" fill="#D9D9D9"/>
<path d="M735.397 292.854L691.581 298.592C691.752 295.856 691.896 293.781 692.003 292.575L692.6 285.825H735.397V292.854Z" fill="#D9D9D9"/>
<path d="M801.943 292.342H742.505L742.338 285.085L751.117 283.478C755.946 282.594 760.797 281.667 761.897 281.417C762.997 281.168 769.747 281.058 776.897 281.173C792.379 281.423 796.694 283.032 800.775 290.073C801.179 290.77 801.568 291.528 801.943 292.342Z" fill="#D9D9D9"/>
<path d="M567.067 298.613L545.293 294.75C546.001 286.1 546.544 280.345 546.691 280.198C547.191 279.697 567.188 284.283 567.986 285.081C568.104 285.199 567.727 290.501 567.067 298.613Z" fill="#D9D9D9"/>
<path d="M526.465 292.342H501.686C502.174 285.659 502.553 281.342 502.723 281.075C503.595 279.699 521.082 279.279 522.936 280.59C523.24 280.805 524.582 285.333 526.465 292.342Z" fill="#D9D9D9"/>
<path d="M493.17 321.393L474.945 328.46L474.248 313.825H493.301L493.17 321.393Z" fill="#D9D9D9"/>
<path d="M458.549 301.842L437.976 294.566C438.367 292.388 438.697 290.808 438.933 290.075C439.048 289.715 439.131 289.435 439.31 289.245C439.934 288.577 441.726 289.002 450.147 290.941C457.153 292.555 459.396 293.466 459.394 294.698C459.393 295.135 459.071 297.829 458.549 301.842Z" fill="#D9D9D9"/>
<path d="M26.4144 297.137L102.616 285.156C102.572 285.125 102.528 285.095 102.485 285.066C94.3128 279.654 76.7318 277.775 57.3968 280.247C45.1058 281.819 30.6408 284.648 28.1468 285.969C26.829 286.667 26.4877 288.123 26.4144 297.137Z" fill="#D9D9D9"/>
<path d="M544.749 111.259C546.276 115.117 560.448 115.58 567.344 115.33C562.757 111.125 552.805 102.758 549.686 102.93C545.787 103.146 542.84 106.437 544.749 111.259Z" fill="#41B70A"/>
<path d="M563.122 101.316C562.932 104.091 571.372 108.464 575.616 110.304C574.056 106.436 570.451 98.4998 568.514 97.7032C566.093 96.7076 563.36 97.8478 563.122 101.316Z" fill="#41B70A"/>
<path d="M554.06 126.703C556.013 128.684 564.88 125.26 569.07 123.3C565.139 121.906 556.806 119.348 554.927 120.27C552.577 121.424 551.62 124.227 554.06 126.703Z" fill="#41B70A"/>
<path d="M642.538 220.618C636.282 219.145 632.828 224.555 631.884 227.444C639.842 226.09 648.058 230.315 651.171 232.597C650.899 229.218 648.793 222.092 642.538 220.618Z" fill="#7B2382"/>
</g>
<defs>
<clipPath id="clip0_4_1216">
<rect width="845" height="462" fill="white"/>
</clipPath>
</defs>
</svg>
